<?xml version="1.0" encoding="UTF-8" standalone="no"?>
<!DOCTYPE svg PUBLIC "-//W3C//DTD SVG 1.1//EN" "http://www.w3.org/Graphics/SVG/1.1/DTD/svg11.dtd">
<svg xmlns="http://www.w3.org/2000/svg" xmlns:xlink="http://www.w3.org/1999/xlink" version="1.1" width="92.209pt" height="92.218pt" viewBox="0 0 92.209 92.218">
<g enable-background="new">
<path transform="matrix(1,0,0,-1,17.758,57.092004)" stroke-width=".3985" stroke-linecap="butt" stroke-miterlimit="10" stroke-linejoin="miter" fill="none" stroke="#000000" d="M 0 0 L 0 56.69362 "/>
<path transform="matrix(1,0,0,-1,17.758,57.092004)" stroke-width=".3985" stroke-linecap="butt" stroke-miterlimit="10" stroke-linejoin="miter" fill="none" stroke="#000000" d="M 0 0 L 56.69362 0 "/>
<path transform="matrix(1,0,0,-1,17.758,57.092004)" stroke-width=".79701" stroke-linecap="butt" stroke-miterlimit="10" stroke-linejoin="miter" fill="none" stroke="#000000" d="M 0 0 L 56.69362 56.69362 "/>
<clipPath id="cp0">
<path transform="matrix(1,0,0,-1,17.758,57.092004)" d="M 0 22.67752 L 0 34.01608 L 56.69362 34.01608 L 56.69362 22.67752 Z M 56.69362 34.01608 "/>
</clipPath>
<g clip-path="url(#cp0)">
<symbol id="pac1">
<path transform="matrix(1,0,0,-1,0,92.218)" stroke-width=".3985" stroke-linecap="butt" stroke-miterlimit="10" stroke-linejoin="miter" fill="none" stroke="#0000ff" d="M 0 2.98883 L 3.08846 -.09962 "/>
</symbol>
<pattern id="pa1" patternUnits="userSpaceOnUse" patternContentUnits="userSpaceOnUse" x="0" y="0" width="2.98883" height="2.98883">
<clipPath id="cp2">
<path d="M -.99628 -.99628 L 3.9851 -.99628 L 3.9851 3.9851 L -.99628 3.9851 Z"/>
</clipPath>
<g clip-path="url(#cp2)">
<g transform="matrix(1,0,0,-1,-0,92.218)">
<use x="0" y="0" xlink:href="#pac1"/>
<use x="0" y="-2.98883" xlink:href="#pac1"/>
<use x="-2.98883" y="0" xlink:href="#pac1"/>
<use x="-2.98883" y="-2.98883" xlink:href="#pac1"/>
</g>
</g>
</pattern>
<rect transform="matrix(1,0,0,-1,0,92.218)" fill="url(#pa1)" x="13.773" y="53.81852" width="64.66361" height="19.308556"/>
</g>
<path transform="matrix(1,0,0,-1,17.758,57.092004)" stroke-width=".3985" stroke-linecap="butt" stroke-miterlimit="10" stroke-linejoin="miter" fill="none" stroke="#000000" d="M 0 22.67752 L 0 34.01608 L 56.69362 34.01608 L 56.69362 22.67752 Z M 56.69362 34.01608 "/>
<clipPath id="cp3">
<path transform="matrix(1,0,0,-1,17.758,57.092004)" d="M 25.51193 0 L 25.51193 56.69362 L 31.18166 56.69362 L 31.18166 0 Z M 31.18166 56.69362 "/>
</clipPath>
<g clip-path="url(#cp3)">
<symbol id="pac4">
<path transform="matrix(1,0,0,-1,0,92.218)" stroke-width=".3985" stroke-linecap="butt" stroke-miterlimit="10" stroke-linejoin="miter" fill="none" stroke="#ff0000" d="M 0 0 L 3.08846 3.08846 "/>
</symbol>
<pattern id="pa4" patternUnits="userSpaceOnUse" patternContentUnits="userSpaceOnUse" x="0" y="0" width="2.98883" height="2.98883">
<clipPath id="cp5">
<path d="M -.99628 -.99628 L 3.9851 -.99628 L 3.9851 3.9851 L -.99628 3.9851 Z"/>
</clipPath>
<g clip-path="url(#cp5)">
<g transform="matrix(1,0,0,-1,-0,92.218)">
<use x="0" y="0" xlink:href="#pac4"/>
<use x="0" y="-2.98883" xlink:href="#pac4"/>
<use x="-2.98883" y="0" xlink:href="#pac4"/>
<use x="-2.98883" y="-2.98883" xlink:href="#pac4"/>
</g>
</g>
</pattern>
<rect transform="matrix(1,0,0,-1,0,92.218)" fill="url(#pa4)" x="39.284929" y="31.140999" width="13.639732" height="64.66362"/>
</g>
<path transform="matrix(1,0,0,-1,17.758,57.092004)" stroke-width=".3985" stroke-linecap="butt" stroke-miterlimit="10" stroke-linejoin="miter" fill="none" stroke="#000000" d="M 25.51193 0 L 25.51193 56.69362 L 31.18166 56.69362 L 31.18166 0 Z M 31.18166 56.69362 "/>
<path transform="matrix(1,0,0,-1,17.758,57.092004)" stroke-width=".79701" stroke-linecap="butt" stroke-miterlimit="10" stroke-linejoin="miter" fill="none" stroke="#ff0000" d="M 31.18166 31.18166 L 25.51193 25.51193 "/>
<path transform="matrix(1,0,0,-1,17.758,57.092004)" stroke-width=".3985" stroke-linecap="butt" stroke-miterlimit="10" stroke-linejoin="miter" fill="none" stroke="#0000ff" d="M 0 28.3468 L 0 28.3468 "/>
<text fill="#0000ff" xml:space="preserve" transform="matrix(1 0 -0 1 0 92.218)" font-size="9.9626" font-family="CMMI10" font-style="italic"><tspan y="-61.328" x="10.195">&#x03f5;</tspan></text>
<path transform="matrix(1,0,0,-1,17.758,57.092004)" stroke-width=".3985" stroke-linecap="butt" stroke-miterlimit="10" stroke-linejoin="miter" fill="none" stroke="#ff0000" d="M 28.3468 0 L 28.3468 0 "/>
<text fill="#ff0000" xml:space="preserve" transform="matrix(1 0 -0 1 0 92.218)" font-size="9.9626" font-family="CMMI10" font-style="italic"><tspan y="-24.688" x="43.702">&#x03b4;</tspan></text>
<text xml:space="preserve" transform="matrix(1 0 -0 1 -.00000023841859 92.218)" font-size="9.9626" font-family="CMR10"><tspan y="-3.321" x="3.32 7.743395 12.724695 17.984948 21.8604 24.630003 29.890255 35.429464 40.410764 45.94997 53.202745 56.2513 61.79051 67.32971 71.753108 75.628559 78.398159 83.379459">continuousfunction</tspan></text>
</g>
</svg>
