<?xml version="1.0" encoding="UTF-8" standalone="no"?>
<!DOCTYPE svg PUBLIC "-//W3C//DTD SVG 1.1//EN" "http://www.w3.org/Graphics/SVG/1.1/DTD/svg11.dtd">
<svg xmlns="http://www.w3.org/2000/svg" xmlns:xlink="http://www.w3.org/1999/xlink" version="1.1" width="201.004pt" height="95.699pt" viewBox="0 0 201.004 95.699">
<g enable-background="new">
<path transform="matrix(1,0,0,-1,27.737,31.533997)" stroke-width=".3985" stroke-linecap="butt" stroke-miterlimit="10" stroke-linejoin="miter" fill="none" stroke="#000000" d="M 62.36288 0 L 87.47676 0 "/>
<path transform="matrix(1,0,0,-1,115.41303,31.533997)" stroke-width=".3985" stroke-linecap="round" stroke-linejoin="round" fill="none" stroke="#000000" d="M -2.07224 2.39104 C -1.69365 .95639 -.84999 .27895 0 0 C -.84999 -.27895 -1.69365 -.95639 -2.07224 -2.39104 "/>
<text xml:space="preserve" transform="matrix(1 0 -0 1 0 95.699)" font-size="9.9626" font-family="CMMI10" font-style="italic"><tspan y="-72.456" x="99.88">f</tspan></text>
<path transform="matrix(1,0,0,-1,27.737,31.533997)" stroke-width=".3985" stroke-linecap="butt" stroke-miterlimit="10" stroke-linejoin="miter" fill="none" stroke="#000000" d="M 24.5491 14.17339 L 24.5491 -14.17339 "/>
<path transform="matrix(1,0,0,-1,27.737,31.533997)" stroke-width=".3985" stroke-linecap="butt" stroke-miterlimit="10" stroke-linejoin="miter" fill="none" stroke="#000000" d="M 24.5491 -14.17339 L 0 -28.3468 "/>
<path transform="matrix(1,0,0,-1,27.737,31.533997)" stroke-width=".3985" stroke-linecap="butt" stroke-miterlimit="10" stroke-linejoin="miter" fill="none" stroke="#000000" d="M 0 -28.3468 L -24.5491 -14.17339 "/>
<path transform="matrix(1,0,0,-1,27.737,31.533997)" stroke-width=".3985" stroke-linecap="butt" stroke-miterlimit="10" stroke-linejoin="miter" fill="none" stroke="#000000" d="M -24.5491 -14.17339 L -24.5491 14.17339 "/>
<path transform="matrix(1,0,0,-1,27.737,31.533997)" stroke-width=".3985" stroke-linecap="butt" stroke-miterlimit="10" stroke-linejoin="miter" fill="none" stroke="#000000" d="M -24.5491 14.17339 L 0 28.3468 "/>
<path transform="matrix(1,0,0,-1,27.737,31.533997)" stroke-width=".3985" stroke-linecap="butt" stroke-miterlimit="10" stroke-linejoin="miter" fill="none" stroke="#000000" d="M 0 28.3468 L 24.5491 14.17339 "/>
<path transform="matrix(1,0,0,-1,27.737,31.533997)" d="M 27.53793 -14.17339 C 27.53793 -12.52269 26.19981 -11.18456 24.5491 -11.18456 C 22.89839 -11.18456 21.56027 -12.52269 21.56027 -14.17339 C 21.56027 -15.8241 22.89839 -17.16222 24.5491 -17.16222 C 26.19981 -17.16222 27.53793 -15.8241 27.53793 -14.17339 Z M 24.5491 -14.17339 " fill="#0000ff"/>
<path transform="matrix(1,0,0,-1,27.737,31.533997)" stroke-width=".3985" stroke-linecap="butt" stroke-miterlimit="10" stroke-linejoin="miter" fill="none" stroke="#0000ff" d="M 27.53793 -14.17339 C 27.53793 -12.52269 26.19981 -11.18456 24.5491 -11.18456 C 22.89839 -11.18456 21.56027 -12.52269 21.56027 -14.17339 C 21.56027 -15.8241 22.89839 -17.16222 24.5491 -17.16222 C 26.19981 -17.16222 27.53793 -15.8241 27.53793 -14.17339 Z M 24.5491 -14.17339 "/>
<path transform="matrix(1,0,0,-1,27.737,31.533997)" d="M 2.98883 -28.3468 C 2.98883 -26.69609 1.6507 -25.35797 0 -25.35797 C -1.6507 -25.35797 -2.98883 -26.69609 -2.98883 -28.3468 C -2.98883 -29.99751 -1.6507 -31.33563 0 -31.33563 C 1.6507 -31.33563 2.98883 -29.99751 2.98883 -28.3468 Z M 0 -28.3468 " fill="#ec008c"/>
<path transform="matrix(1,0,0,-1,27.737,31.533997)" stroke-width=".3985" stroke-linecap="butt" stroke-miterlimit="10" stroke-linejoin="miter" fill="none" stroke="#ec008c" d="M 2.98883 -28.3468 C 2.98883 -26.69609 1.6507 -25.35797 0 -25.35797 C -1.6507 -25.35797 -2.98883 -26.69609 -2.98883 -28.3468 C -2.98883 -29.99751 -1.6507 -31.33563 0 -31.33563 C 1.6507 -31.33563 2.98883 -29.99751 2.98883 -28.3468 Z M 0 -28.3468 "/>
<path transform="matrix(1,0,0,-1,27.737,31.533997)" d="M -21.56027 -14.17339 C -21.56027 -12.52269 -22.89839 -11.18456 -24.5491 -11.18456 C -26.19981 -11.18456 -27.53793 -12.52269 -27.53793 -14.17339 C -27.53793 -15.8241 -26.19981 -17.16222 -24.5491 -17.16222 C -22.89839 -17.16222 -21.56027 -15.8241 -21.56027 -14.17339 Z M -24.5491 -14.17339 " fill="#0000ff"/>
<path transform="matrix(1,0,0,-1,27.737,31.533997)" stroke-width=".3985" stroke-linecap="butt" stroke-miterlimit="10" stroke-linejoin="miter" fill="none" stroke="#0000ff" d="M -21.56027 -14.17339 C -21.56027 -12.52269 -22.89839 -11.18456 -24.5491 -11.18456 C -26.19981 -11.18456 -27.53793 -12.52269 -27.53793 -14.17339 C -27.53793 -15.8241 -26.19981 -17.16222 -24.5491 -17.16222 C -22.89839 -17.16222 -21.56027 -15.8241 -21.56027 -14.17339 Z M -24.5491 -14.17339 "/>
<path transform="matrix(1,0,0,-1,27.737,31.533997)" d="M -21.56027 14.17339 C -21.56027 15.8241 -22.89839 17.16222 -24.5491 17.16222 C -26.19981 17.16222 -27.53793 15.8241 -27.53793 14.17339 C -27.53793 12.52269 -26.19981 11.18456 -24.5491 11.18456 C -22.89839 11.18456 -21.56027 12.52269 -21.56027 14.17339 Z M -24.5491 14.17339 " fill="#ec008c"/>
<path transform="matrix(1,0,0,-1,27.737,31.533997)" stroke-width=".3985" stroke-linecap="butt" stroke-miterlimit="10" stroke-linejoin="miter" fill="none" stroke="#ec008c" d="M -21.56027 14.17339 C -21.56027 15.8241 -22.89839 17.16222 -24.5491 17.16222 C -26.19981 17.16222 -27.53793 15.8241 -27.53793 14.17339 C -27.53793 12.52269 -26.19981 11.18456 -24.5491 11.18456 C -22.89839 11.18456 -21.56027 12.52269 -21.56027 14.17339 Z M -24.5491 14.17339 "/>
<path transform="matrix(1,0,0,-1,27.737,31.533997)" d="M 2.98883 28.3468 C 2.98883 29.99751 1.6507 31.33563 0 31.33563 C -1.6507 31.33563 -2.98883 29.99751 -2.98883 28.3468 C -2.98883 26.69609 -1.6507 25.35797 0 25.35797 C 1.6507 25.35797 2.98883 26.69609 2.98883 28.3468 Z M 0 28.3468 " fill="#0000ff"/>
<path transform="matrix(1,0,0,-1,27.737,31.533997)" stroke-width=".3985" stroke-linecap="butt" stroke-miterlimit="10" stroke-linejoin="miter" fill="none" stroke="#0000ff" d="M 2.98883 28.3468 C 2.98883 29.99751 1.6507 31.33563 0 31.33563 C -1.6507 31.33563 -2.98883 29.99751 -2.98883 28.3468 C -2.98883 26.69609 -1.6507 25.35797 0 25.35797 C 1.6507 25.35797 2.98883 26.69609 2.98883 28.3468 Z M 0 28.3468 "/>
<path transform="matrix(1,0,0,-1,27.737,31.533997)" d="M 27.53793 14.17339 C 27.53793 15.8241 26.19981 17.16222 24.5491 17.16222 C 22.89839 17.16222 21.56027 15.8241 21.56027 14.17339 C 21.56027 12.52269 22.89839 11.18456 24.5491 11.18456 C 26.19981 11.18456 27.53793 12.52269 27.53793 14.17339 Z M 24.5491 14.17339 " fill="#ec008c"/>
<path transform="matrix(1,0,0,-1,27.737,31.533997)" stroke-width=".3985" stroke-linecap="butt" stroke-miterlimit="10" stroke-linejoin="miter" fill="none" stroke="#ec008c" d="M 27.53793 14.17339 C 27.53793 15.8241 26.19981 17.16222 24.5491 17.16222 C 22.89839 17.16222 21.56027 15.8241 21.56027 14.17339 C 21.56027 12.52269 22.89839 11.18456 24.5491 11.18456 C 26.19981 11.18456 27.53793 12.52269 27.53793 14.17339 Z M 24.5491 14.17339 "/>
<text xml:space="preserve" transform="matrix(1 0 -0 1 0 95.698)" font-size="9.9626" font-family="CMMI10" font-style="italic"><tspan y="-4.815" x="21.942">C</tspan></text>
<text xml:space="preserve" transform="matrix(1 0 -0 1 0 95.698)" font-size="6.9738" font-family="CMR7"><tspan y="-3.321" x="29.062">6</tspan></text>
<path transform="matrix(1,0,0,-1,27.737,31.533997)" stroke-width=".3985" stroke-linecap="butt" stroke-miterlimit="10" stroke-linejoin="miter" fill="none" stroke="#000000" d="M 113.38724 0 L 170.08086 0 "/>
<path transform="matrix(1,0,0,-1,27.737,31.533997)" stroke-width=".3985" stroke-linecap="butt" stroke-miterlimit="10" stroke-linejoin="miter" fill="none" stroke="#000000" d="M 141.73404 28.3468 L 141.73404 -28.3468 "/>
<path transform="matrix(1,0,0,-1,27.737,31.533997)" d="M 144.72287 0 C 144.72287 1.6507 143.38475 2.98883 141.73404 2.98883 C 140.08333 2.98883 138.74521 1.6507 138.74521 0 C 138.74521 -1.6507 140.08333 -2.98883 141.73404 -2.98883 C 143.38475 -2.98883 144.72287 -1.6507 144.72287 0 Z M 141.73404 0 " fill="#008080"/>
<path transform="matrix(1,0,0,-1,27.737,31.533997)" stroke-width=".3985" stroke-linecap="butt" stroke-miterlimit="10" stroke-linejoin="miter" fill="none" stroke="#008080" d="M 144.72287 0 C 144.72287 1.6507 143.38475 2.98883 141.73404 2.98883 C 140.08333 2.98883 138.74521 1.6507 138.74521 0 C 138.74521 -1.6507 140.08333 -2.98883 141.73404 -2.98883 C 143.38475 -2.98883 144.72287 -1.6507 144.72287 0 Z M 141.73404 0 "/>
<path transform="matrix(1,0,0,-1,27.737,31.533997)" d="M 144.72287 28.3468 C 144.72287 29.99751 143.38475 31.33563 141.73404 31.33563 C 140.08333 31.33563 138.74521 29.99751 138.74521 28.3468 C 138.74521 26.69609 140.08333 25.35797 141.73404 25.35797 C 143.38475 25.35797 144.72287 26.69609 144.72287 28.3468 Z M 141.73404 28.3468 " fill="#ff8000"/>
<path transform="matrix(1,0,0,-1,27.737,31.533997)" stroke-width=".3985" stroke-linecap="butt" stroke-miterlimit="10" stroke-linejoin="miter" fill="none" stroke="#ff8000" d="M 144.72287 28.3468 C 144.72287 29.99751 143.38475 31.33563 141.73404 31.33563 C 140.08333 31.33563 138.74521 29.99751 138.74521 28.3468 C 138.74521 26.69609 140.08333 25.35797 141.73404 25.35797 C 143.38475 25.35797 144.72287 26.69609 144.72287 28.3468 Z M 141.73404 28.3468 "/>
<path transform="matrix(1,0,0,-1,27.737,31.533997)" d="M 144.72287 -28.3468 C 144.72287 -26.69609 143.38475 -25.35797 141.73404 -25.35797 C 140.08333 -25.35797 138.74521 -26.69609 138.74521 -28.3468 C 138.74521 -29.99751 140.08333 -31.33563 141.73404 -31.33563 C 143.38475 -31.33563 144.72287 -29.99751 144.72287 -28.3468 Z M 141.73404 -28.3468 " fill="#ff8000"/>
<path transform="matrix(1,0,0,-1,27.737,31.533997)" stroke-width=".3985" stroke-linecap="butt" stroke-miterlimit="10" stroke-linejoin="miter" fill="none" stroke="#ff8000" d="M 144.72287 -28.3468 C 144.72287 -26.69609 143.38475 -25.35797 141.73404 -25.35797 C 140.08333 -25.35797 138.74521 -26.69609 138.74521 -28.3468 C 138.74521 -29.99751 140.08333 -31.33563 141.73404 -31.33563 C 143.38475 -31.33563 144.72287 -29.99751 144.72287 -28.3468 Z M 141.73404 -28.3468 "/>
<path transform="matrix(1,0,0,-1,27.737,31.533997)" d="M 173.06969 0 C 173.06969 1.6507 171.73155 2.98883 170.08086 2.98883 C 168.43015 2.98883 167.09203 1.6507 167.09203 0 C 167.09203 -1.6507 168.43015 -2.98883 170.08086 -2.98883 C 171.73155 -2.98883 173.06969 -1.6507 173.06969 0 Z M 170.08086 0 " fill="#ff8000"/>
<path transform="matrix(1,0,0,-1,27.737,31.533997)" stroke-width=".3985" stroke-linecap="butt" stroke-miterlimit="10" stroke-linejoin="miter" fill="none" stroke="#ff8000" d="M 173.06969 0 C 173.06969 1.6507 171.73155 2.98883 170.08086 2.98883 C 168.43015 2.98883 167.09203 1.6507 167.09203 0 C 167.09203 -1.6507 168.43015 -2.98883 170.08086 -2.98883 C 171.73155 -2.98883 173.06969 -1.6507 173.06969 0 Z M 170.08086 0 "/>
<path transform="matrix(1,0,0,-1,27.737,31.533997)" d="M 116.37607 0 C 116.37607 1.6507 115.03793 2.98883 113.38724 2.98883 C 111.73653 2.98883 110.3984 1.6507 110.3984 0 C 110.3984 -1.6507 111.73653 -2.98883 113.38724 -2.98883 C 115.03793 -2.98883 116.37607 -1.6507 116.37607 0 Z M 113.38724 0 " fill="#ff8000"/>
<path transform="matrix(1,0,0,-1,27.737,31.533997)" stroke-width=".3985" stroke-linecap="butt" stroke-miterlimit="10" stroke-linejoin="miter" fill="none" stroke="#ff8000" d="M 116.37607 0 C 116.37607 1.6507 115.03793 2.98883 113.38724 2.98883 C 111.73653 2.98883 110.3984 1.6507 110.3984 0 C 110.3984 -1.6507 111.73653 -2.98883 113.38724 -2.98883 C 115.03793 -2.98883 116.37607 -1.6507 116.37607 0 Z M 113.38724 0 "/>
<text xml:space="preserve" transform="matrix(1 0 -0 1 0 95.699)" font-size="9.9626" font-family="CMMI10" font-style="italic"><tspan y="-4.815" x="164.18">S</tspan></text>
<text xml:space="preserve" transform="matrix(1 0 -0 1 0 95.699)" font-size="6.9738" font-family="CMR7"><tspan y="-3.321" x="170.28899">5</tspan></text>
</g>
</svg>
