<?xml version="1.0" encoding="UTF-8" standalone="no"?>
<!DOCTYPE svg PUBLIC "-//W3C//DTD SVG 1.1//EN" "http://www.w3.org/Graphics/SVG/1.1/DTD/svg11.dtd">
<svg xmlns="http://www.w3.org/2000/svg" xmlns:xlink="http://www.w3.org/1999/xlink" version="1.1" width="157.092pt" height="63.252pt" viewBox="0 0 157.092 63.252">
<g enable-background="new">
<path transform="matrix(1,0,0,-1,5.811,41.607)" d="M 1.99255 0 C 1.99255 1.10046 1.10046 1.99255 0 1.99255 C -1.10046 1.99255 -1.99255 1.10046 -1.99255 0 C -1.99255 -1.10046 -1.10046 -1.99255 0 -1.99255 C 1.10046 -1.99255 1.99255 -1.10046 1.99255 0 Z M 0 0 "/>
<path transform="matrix(1,0,0,-1,5.811,41.607)" stroke-width=".3985" stroke-linecap="butt" stroke-miterlimit="10" stroke-linejoin="miter" fill="none" stroke="#000000" d="M 1.99255 0 C 1.99255 1.10046 1.10046 1.99255 0 1.99255 C -1.10046 1.99255 -1.99255 1.10046 -1.99255 0 C -1.99255 -1.10046 -1.10046 -1.99255 0 -1.99255 C 1.10046 -1.99255 1.99255 -1.10046 1.99255 0 Z M 0 0 "/>
<path transform="matrix(1,0,0,-1,5.811,41.607)" stroke-width=".3985" stroke-linecap="butt" stroke-miterlimit="10" stroke-linejoin="miter" fill="none" stroke="#000000" d="M 0 0 L 0 0 "/>
<text xml:space="preserve" transform="matrix(1 0 -0 1 -.00000023841859 63.252)" font-size="9.9626" font-family="CMR10"><tspan y="-11.705" x="3.321">0</tspan></text>
<path transform="matrix(1,0,0,-1,5.811,41.607)" d="M 30.33936 0 C 30.33936 1.10046 29.44728 1.99255 28.3468 1.99255 C 27.24634 1.99255 26.35425 1.10046 26.35425 0 C 26.35425 -1.10046 27.24634 -1.99255 28.3468 -1.99255 C 29.44728 -1.99255 30.33936 -1.10046 30.33936 0 Z M 28.3468 0 "/>
<path transform="matrix(1,0,0,-1,5.811,41.607)" stroke-width=".3985" stroke-linecap="butt" stroke-miterlimit="10" stroke-linejoin="miter" fill="none" stroke="#000000" d="M 30.33936 0 C 30.33936 1.10046 29.44728 1.99255 28.3468 1.99255 C 27.24634 1.99255 26.35425 1.10046 26.35425 0 C 26.35425 -1.10046 27.24634 -1.99255 28.3468 -1.99255 C 29.44728 -1.99255 30.33936 -1.10046 30.33936 0 Z M 28.3468 0 "/>
<path transform="matrix(1,0,0,-1,5.811,41.607)" stroke-width=".3985" stroke-linecap="butt" stroke-miterlimit="10" stroke-linejoin="miter" fill="none" stroke="#000000" d="M 28.3468 0 L 28.3468 0 "/>
<text xml:space="preserve" transform="matrix(1 0 -0 1 0 63.252)" font-size="9.9626" font-family="CMR10"><tspan y="-11.705" x="31.667">1</tspan></text>
<path transform="matrix(1,0,0,-1,5.811,41.607)" d="M 58.68617 0 C 58.68617 1.10046 57.79408 1.99255 56.69362 1.99255 C 55.59314 1.99255 54.70107 1.10046 54.70107 0 C 54.70107 -1.10046 55.59314 -1.99255 56.69362 -1.99255 C 57.79408 -1.99255 58.68617 -1.10046 58.68617 0 Z M 56.69362 0 "/>
<path transform="matrix(1,0,0,-1,5.811,41.607)" stroke-width=".3985" stroke-linecap="butt" stroke-miterlimit="10" stroke-linejoin="miter" fill="none" stroke="#000000" d="M 58.68617 0 C 58.68617 1.10046 57.79408 1.99255 56.69362 1.99255 C 55.59314 1.99255 54.70107 1.10046 54.70107 0 C 54.70107 -1.10046 55.59314 -1.99255 56.69362 -1.99255 C 57.79408 -1.99255 58.68617 -1.10046 58.68617 0 Z M 56.69362 0 "/>
<path transform="matrix(1,0,0,-1,5.811,41.607)" stroke-width=".3985" stroke-linecap="butt" stroke-miterlimit="10" stroke-linejoin="miter" fill="none" stroke="#000000" d="M 56.69362 0 L 56.69362 0 "/>
<text xml:space="preserve" transform="matrix(1 0 -0 1 0 63.252)" font-size="9.9626" font-family="CMR10"><tspan y="-11.705" x="60.013">2</tspan></text>
<path transform="matrix(1,0,0,-1,5.811,41.607)" d="M 1.99255 28.3468 C 1.99255 29.44728 1.10046 30.33936 0 30.33936 C -1.10046 30.33936 -1.99255 29.44728 -1.99255 28.3468 C -1.99255 27.24634 -1.10046 26.35425 0 26.35425 C 1.10046 26.35425 1.99255 27.24634 1.99255 28.3468 Z M 0 28.3468 "/>
<path transform="matrix(1,0,0,-1,5.811,41.607)" stroke-width=".3985" stroke-linecap="butt" stroke-miterlimit="10" stroke-linejoin="miter" fill="none" stroke="#000000" d="M 1.99255 28.3468 C 1.99255 29.44728 1.10046 30.33936 0 30.33936 C -1.10046 30.33936 -1.99255 29.44728 -1.99255 28.3468 C -1.99255 27.24634 -1.10046 26.35425 0 26.35425 C 1.10046 26.35425 1.99255 27.24634 1.99255 28.3468 Z M 0 28.3468 "/>
<path transform="matrix(1,0,0,-1,5.811,41.607)" stroke-width=".3985" stroke-linecap="butt" stroke-miterlimit="10" stroke-linejoin="miter" fill="none" stroke="#000000" d="M 0 28.3468 L 0 28.3468 "/>
<text xml:space="preserve" transform="matrix(1 0 -0 1 0 63.252)" font-size="9.9626" font-family="CMR10"><tspan y="-53.511" x="3.32">0</tspan></text>
<path transform="matrix(1,0,0,-1,5.811,41.607)" d="M 30.33936 28.3468 C 30.33936 29.44728 29.44728 30.33936 28.3468 30.33936 C 27.24634 30.33936 26.35425 29.44728 26.35425 28.3468 C 26.35425 27.24634 27.24634 26.35425 28.3468 26.35425 C 29.44728 26.35425 30.33936 27.24634 30.33936 28.3468 Z M 28.3468 28.3468 "/>
<path transform="matrix(1,0,0,-1,5.811,41.607)" stroke-width=".3985" stroke-linecap="butt" stroke-miterlimit="10" stroke-linejoin="miter" fill="none" stroke="#000000" d="M 30.33936 28.3468 C 30.33936 29.44728 29.44728 30.33936 28.3468 30.33936 C 27.24634 30.33936 26.35425 29.44728 26.35425 28.3468 C 26.35425 27.24634 27.24634 26.35425 28.3468 26.35425 C 29.44728 26.35425 30.33936 27.24634 30.33936 28.3468 Z M 28.3468 28.3468 "/>
<path transform="matrix(1,0,0,-1,5.811,41.607)" stroke-width=".3985" stroke-linecap="butt" stroke-miterlimit="10" stroke-linejoin="miter" fill="none" stroke="#000000" d="M 28.3468 28.3468 L 28.3468 28.3468 "/>
<text xml:space="preserve" transform="matrix(1 0 -0 1 0 63.252)" font-size="9.9626" font-family="CMR10"><tspan y="-53.511" x="31.667">1</tspan></text>
<path transform="matrix(1,0,0,-1,5.811,41.607)" d="M 58.68617 28.3468 C 58.68617 29.44728 57.79408 30.33936 56.69362 30.33936 C 55.59314 30.33936 54.70107 29.44728 54.70107 28.3468 C 54.70107 27.24634 55.59314 26.35425 56.69362 26.35425 C 57.79408 26.35425 58.68617 27.24634 58.68617 28.3468 Z M 56.69362 28.3468 "/>
<path transform="matrix(1,0,0,-1,5.811,41.607)" stroke-width=".3985" stroke-linecap="butt" stroke-miterlimit="10" stroke-linejoin="miter" fill="none" stroke="#000000" d="M 58.68617 28.3468 C 58.68617 29.44728 57.79408 30.33936 56.69362 30.33936 C 55.59314 30.33936 54.70107 29.44728 54.70107 28.3468 C 54.70107 27.24634 55.59314 26.35425 56.69362 26.35425 C 57.79408 26.35425 58.68617 27.24634 58.68617 28.3468 Z M 56.69362 28.3468 "/>
<path transform="matrix(1,0,0,-1,5.811,41.607)" stroke-width=".3985" stroke-linecap="butt" stroke-miterlimit="10" stroke-linejoin="miter" fill="none" stroke="#000000" d="M 56.69362 28.3468 L 56.69362 28.3468 "/>
<text xml:space="preserve" transform="matrix(1 0 -0 1 0 63.252)" font-size="9.9626" font-family="CMR10"><tspan y="-53.511" x="60.013">2</tspan></text>
<path transform="matrix(1,0,0,-1,5.811,41.607)" stroke-width=".3985" stroke-linecap="butt" stroke-miterlimit="10" stroke-linejoin="miter" fill="none" stroke="#000000" d="M 0 0 L 28.3468 28.3468 "/>
<path transform="matrix(1,0,0,-1,5.811,41.607)" stroke-width=".3985" stroke-linecap="butt" stroke-miterlimit="10" stroke-linejoin="miter" fill="none" stroke="#000000" d="M 0 0 L 28.3468 0 "/>
<path transform="matrix(1,0,0,-1,5.811,41.607)" stroke-width=".3985" stroke-linecap="butt" stroke-miterlimit="10" stroke-linejoin="miter" fill="none" stroke="#000000" d="M 0 28.3468 L 28.3468 0 "/>
<path transform="matrix(1,0,0,-1,5.811,41.607)" stroke-width=".3985" stroke-linecap="butt" stroke-miterlimit="10" stroke-linejoin="miter" fill="none" stroke="#000000" d="M 0 28.3468 L 28.3468 28.3468 "/>
<path transform="matrix(1,0,0,-1,5.811,41.607)" stroke-width=".3985" stroke-linecap="butt" stroke-miterlimit="10" stroke-linejoin="miter" fill="none" stroke="#000000" d="M 28.3468 0 L 56.69362 28.3468 "/>
<path transform="matrix(1,0,0,-1,5.811,41.607)" stroke-width=".3985" stroke-linecap="butt" stroke-miterlimit="10" stroke-linejoin="miter" fill="none" stroke="#000000" d="M 28.3468 0 L 56.69362 0 "/>
<path transform="matrix(1,0,0,-1,5.811,41.607)" stroke-width=".3985" stroke-linecap="butt" stroke-miterlimit="10" stroke-linejoin="miter" fill="none" stroke="#000000" d="M 28.3468 28.3468 L 56.69362 0 "/>
<path transform="matrix(1,0,0,-1,5.811,41.607)" stroke-width=".3985" stroke-linecap="butt" stroke-miterlimit="10" stroke-linejoin="miter" fill="none" stroke="#000000" d="M 28.3468 28.3468 L 56.69362 28.3468 "/>
<text xml:space="preserve" transform="matrix(1 0 -0 1 0 63.251996)" font-size="9.9626" font-family="CMMI10" font-style="italic"><tspan y="-4.815" x="18.212">P</tspan></text>
<text xml:space="preserve" transform="matrix(1 0 -0 1 0 63.251996)" font-size="6.9738" font-family="CMR7"><tspan y="-3.321" x="24.608">3</tspan></text>
<text xml:space="preserve" transform="matrix(1 0 -0 1 0 63.251996)" font-size="9.9626" font-family="CMSY10" font-style="italic"><tspan y="-4.815" x="31.292">&#x00d7;</tspan></text>
<text xml:space="preserve" transform="matrix(1 0 -0 1 0 63.251996)" font-size="9.9626" font-family="CMMI10" font-style="italic"><tspan y="-4.815" x="41.253999">I</tspan></text>
<text xml:space="preserve" transform="matrix(1 0 -0 1 0 63.251996)" font-size="6.9738" font-family="CMR7"><tspan y="-3.321" x="45.634">1</tspan></text>
<path transform="matrix(1,0,0,-1,5.811,41.607)" stroke-width=".3985" stroke-linecap="butt" stroke-miterlimit="10" stroke-linejoin="miter" fill="none" stroke="#000000" d="M 113.38724 0 L 141.73404 0 "/>
<path transform="matrix(1,0,0,-1,5.811,41.607)" d="M 87.03297 0 C 87.03297 1.10046 86.1409 1.99255 85.04042 1.99255 C 83.93996 1.99255 83.04787 1.10046 83.04787 0 C 83.04787 -1.10046 83.93996 -1.99255 85.04042 -1.99255 C 86.1409 -1.99255 87.03297 -1.10046 87.03297 0 Z M 85.04042 0 " fill="#ff0000"/>
<path transform="matrix(1,0,0,-1,5.811,41.607)" stroke-width=".3985" stroke-linecap="butt" stroke-miterlimit="10" stroke-linejoin="miter" fill="none" stroke="#ff0000" d="M 87.03297 0 C 87.03297 1.10046 86.1409 1.99255 85.04042 1.99255 C 83.93996 1.99255 83.04787 1.10046 83.04787 0 C 83.04787 -1.10046 83.93996 -1.99255 85.04042 -1.99255 C 86.1409 -1.99255 87.03297 -1.10046 87.03297 0 Z M 85.04042 0 "/>
<path transform="matrix(1,0,0,-1,5.811,41.607)" stroke-width=".3985" stroke-linecap="butt" stroke-miterlimit="10" stroke-linejoin="miter" fill="none" stroke="#000000" d="M 85.04042 0 L 85.04042 0 "/>
<text fill="#ff0000" xml:space="preserve" transform="matrix(1 0 -0 1 -.0000076293949 63.252)" font-size="4.9813" font-family="CMMI5" font-style="italic"><tspan y="-14.389" x="76.316">f</tspan></text>
<text fill="#ff0000" xml:space="preserve" transform="matrix(1 0 -0 1 -.0000076293949 63.252)" font-size="4.9813" font-family="CMR5"><tspan y="-14.389" x="80.311008 83.01087 86.40314">(0)</tspan></text>
<text fill="#ff0000" xml:space="preserve" transform="matrix(1 0 -0 1 -.0000076293949 63.252)" font-size="4.9813" font-family="CMMI5" font-style="italic"><tspan y="-14.389" x="89.09801 92.59986">,f</tspan></text>
<text fill="#ff0000" xml:space="preserve" transform="matrix(1 0 -0 1 -.0000076293949 63.252)" font-size="4.9813" font-family="CMR5"><tspan y="-14.389" x="96.59901 99.298877 102.69114">(2)</tspan></text>
<path transform="matrix(1,0,0,-1,5.811,41.607)" d="M 115.37979 0 C 115.37979 1.10046 114.4877 1.99255 113.38724 1.99255 C 112.28676 1.99255 111.39468 1.10046 111.39468 0 C 111.39468 -1.10046 112.28676 -1.99255 113.38724 -1.99255 C 114.4877 -1.99255 115.37979 -1.10046 115.37979 0 Z M 113.38724 0 " fill="#ff0000"/>
<path transform="matrix(1,0,0,-1,5.811,41.607)" stroke-width=".3985" stroke-linecap="butt" stroke-miterlimit="10" stroke-linejoin="miter" fill="none" stroke="#ff0000" d="M 115.37979 0 C 115.37979 1.10046 114.4877 1.99255 113.38724 1.99255 C 112.28676 1.99255 111.39468 1.10046 111.39468 0 C 111.39468 -1.10046 112.28676 -1.99255 113.38724 -1.99255 C 114.4877 -1.99255 115.37979 -1.10046 115.37979 0 Z M 113.38724 0 "/>
<path transform="matrix(1,0,0,-1,5.811,41.607)" stroke-width=".3985" stroke-linecap="butt" stroke-miterlimit="10" stroke-linejoin="miter" fill="none" stroke="#000000" d="M 113.38724 0 L 113.38724 0 "/>
<text fill="#ff0000" xml:space="preserve" transform="matrix(1 0 -0 1 0 63.252)" font-size="4.9813" font-family="CMMI5" font-style="italic"><tspan y="-14.389" x="112.806">f</tspan></text>
<text fill="#ff0000" xml:space="preserve" transform="matrix(1 0 -0 1 0 63.252)" font-size="4.9813" font-family="CMR5"><tspan y="-14.389" x="116.801 119.50087 122.893138">(1)</tspan></text>
<path transform="matrix(1,0,0,-1,5.811,41.607)" d="M 143.7266 0 C 143.7266 1.10046 142.83452 1.99255 141.73404 1.99255 C 140.63358 1.99255 139.74149 1.10046 139.74149 0 C 139.74149 -1.10046 140.63358 -1.99255 141.73404 -1.99255 C 142.83452 -1.99255 143.7266 -1.10046 143.7266 0 Z M 141.73404 0 "/>
<path transform="matrix(1,0,0,-1,5.811,41.607)" stroke-width=".3985" stroke-linecap="butt" stroke-miterlimit="10" stroke-linejoin="miter" fill="none" stroke="#000000" d="M 143.7266 0 C 143.7266 1.10046 142.83452 1.99255 141.73404 1.99255 C 140.63358 1.99255 139.74149 1.10046 139.74149 0 C 139.74149 -1.10046 140.63358 -1.99255 141.73404 -1.99255 C 142.83452 -1.99255 143.7266 -1.10046 143.7266 0 Z M 141.73404 0 "/>
<path transform="matrix(1,0,0,-1,5.811,41.607)" stroke-width=".3985" stroke-linecap="butt" stroke-miterlimit="10" stroke-linejoin="miter" fill="none" stroke="#000000" d="M 141.73404 0 L 141.73404 0 "/>
<text xml:space="preserve" transform="matrix(1 0 -0 1 .000015258789 63.252)" font-size="9.9626" font-family="CMR10"><tspan y="-11.705" x="145.053">2</tspan></text>
<path transform="matrix(1,0,0,-1,5.811,41.607)" d="M 87.03297 28.3468 C 87.03297 29.44728 86.1409 30.33936 85.04042 30.33936 C 83.93996 30.33936 83.04787 29.44728 83.04787 28.3468 C 83.04787 27.24634 83.93996 26.35425 85.04042 26.35425 C 86.1409 26.35425 87.03297 27.24634 87.03297 28.3468 Z M 85.04042 28.3468 " fill="#ff0000"/>
<path transform="matrix(1,0,0,-1,5.811,41.607)" stroke-width=".3985" stroke-linecap="butt" stroke-miterlimit="10" stroke-linejoin="miter" fill="none" stroke="#ff0000" d="M 87.03297 28.3468 C 87.03297 29.44728 86.1409 30.33936 85.04042 30.33936 C 83.93996 30.33936 83.04787 29.44728 83.04787 28.3468 C 83.04787 27.24634 83.93996 26.35425 85.04042 26.35425 C 86.1409 26.35425 87.03297 27.24634 87.03297 28.3468 Z M 85.04042 28.3468 "/>
<path transform="matrix(1,0,0,-1,5.811,41.607)" stroke-width=".3985" stroke-linecap="butt" stroke-miterlimit="10" stroke-linejoin="miter" fill="none" stroke="#000000" d="M 85.04042 28.3468 L 85.04042 28.3468 "/>
<text fill="#ff0000" xml:space="preserve" transform="matrix(1 0 -0 1 -.0000076293949 63.252)" font-size="4.9813" font-family="CMMI5" font-style="italic"><tspan y="-54.756" x="84.623">g</tspan></text>
<text fill="#ff0000" xml:space="preserve" transform="matrix(1 0 -0 1 -.0000076293949 63.252)" font-size="4.9813" font-family="CMR5"><tspan y="-54.756" x="88.291 90.99087 94.38313">(0)</tspan></text>
<path transform="matrix(1,0,0,-1,5.811,41.607)" d="M 115.37979 28.3468 C 115.37979 29.44728 114.4877 30.33936 113.38724 30.33936 C 112.28676 30.33936 111.39468 29.44728 111.39468 28.3468 C 111.39468 27.24634 112.28676 26.35425 113.38724 26.35425 C 114.4877 26.35425 115.37979 27.24634 115.37979 28.3468 Z M 113.38724 28.3468 " fill="#ff0000"/>
<path transform="matrix(1,0,0,-1,5.811,41.607)" stroke-width=".3985" stroke-linecap="butt" stroke-miterlimit="10" stroke-linejoin="miter" fill="none" stroke="#ff0000" d="M 115.37979 28.3468 C 115.37979 29.44728 114.4877 30.33936 113.38724 30.33936 C 112.28676 30.33936 111.39468 29.44728 111.39468 28.3468 C 111.39468 27.24634 112.28676 26.35425 113.38724 26.35425 C 114.4877 26.35425 115.37979 27.24634 115.37979 28.3468 Z M 113.38724 28.3468 "/>
<path transform="matrix(1,0,0,-1,5.811,41.607)" stroke-width=".3985" stroke-linecap="butt" stroke-miterlimit="10" stroke-linejoin="miter" fill="none" stroke="#000000" d="M 113.38724 28.3468 L 113.38724 28.3468 "/>
<text fill="#ff0000" xml:space="preserve" transform="matrix(1 0 -0 1 -.0000076293949 63.252)" font-size="4.9813" font-family="CMMI5" font-style="italic"><tspan y="-54.756" x="112.969">g</tspan></text>
<text fill="#ff0000" xml:space="preserve" transform="matrix(1 0 -0 1 -.0000076293949 63.252)" font-size="4.9813" font-family="CMR5"><tspan y="-54.756" x="116.638 119.33787 122.73013">(1)</tspan></text>
<path transform="matrix(1,0,0,-1,5.811,41.607)" d="M 143.7266 28.3468 C 143.7266 29.44728 142.83452 30.33936 141.73404 30.33936 C 140.63358 30.33936 139.74149 29.44728 139.74149 28.3468 C 139.74149 27.24634 140.63358 26.35425 141.73404 26.35425 C 142.83452 26.35425 143.7266 27.24634 143.7266 28.3468 Z M 141.73404 28.3468 " fill="#ff0000"/>
<path transform="matrix(1,0,0,-1,5.811,41.607)" stroke-width=".3985" stroke-linecap="butt" stroke-miterlimit="10" stroke-linejoin="miter" fill="none" stroke="#ff0000" d="M 143.7266 28.3468 C 143.7266 29.44728 142.83452 30.33936 141.73404 30.33936 C 140.63358 30.33936 139.74149 29.44728 139.74149 28.3468 C 139.74149 27.24634 140.63358 26.35425 141.73404 26.35425 C 142.83452 26.35425 143.7266 27.24634 143.7266 28.3468 Z M 141.73404 28.3468 "/>
<path transform="matrix(1,0,0,-1,5.811,41.607)" stroke-width=".3985" stroke-linecap="butt" stroke-miterlimit="10" stroke-linejoin="miter" fill="none" stroke="#000000" d="M 141.73404 28.3468 L 141.73404 28.3468 "/>
<text fill="#ff0000" xml:space="preserve" transform="matrix(1 0 -0 1 .000015258789 63.252)" font-size="4.9813" font-family="CMMI5" font-style="italic"><tspan y="-54.756" x="141.316">g</tspan></text>
<text fill="#ff0000" xml:space="preserve" transform="matrix(1 0 -0 1 .000015258789 63.252)" font-size="4.9813" font-family="CMR5"><tspan y="-54.756" x="144.984 147.68386 151.07613">(2)</tspan></text>
<path transform="matrix(1,0,0,-1,5.811,41.607)" stroke-width=".3985" stroke-linecap="butt" stroke-miterlimit="10" stroke-linejoin="miter" fill="none" stroke="#ff0000" d="M 113.38724 28.3468 L 141.73404 28.3468 "/>
<path transform="matrix(1,0,0,-1,5.811,41.607)" stroke-width=".3985" stroke-linecap="butt" stroke-miterlimit="10" stroke-linejoin="miter" fill="none" stroke="#ff0000" d="M 85.04042 0 L 113.38724 0 "/>
<path transform="matrix(1,0,0,-1,5.811,41.607)" stroke-width=".3985" stroke-linecap="butt" stroke-miterlimit="10" stroke-linejoin="miter" fill="none" stroke="#ff0000" d="M 85.04042 28.3468 L 113.38724 28.3468 "/>
<path transform="matrix(1,0,0,-1,5.811,41.607)" stroke-width=".3985" stroke-linecap="butt" stroke-miterlimit="10" stroke-linejoin="miter" fill="none" stroke="#000000" d="M 56.69362 14.17339 L 84.64192 14.17339 "/>
<path transform="matrix(1,0,0,-1,90.65217,27.433609)" stroke-width=".3985" stroke-linecap="round" stroke-linejoin="round" fill="none" stroke="#000000" d="M -2.07224 2.39104 C -1.69365 .95639 -.84999 .27895 0 0 C -.84999 -.27895 -1.69365 -.95639 -2.07224 -2.39104 "/>
<text xml:space="preserve" transform="matrix(1 0 -0 1 0 63.252)" font-size="9.9626" font-family="CMMI10" font-style="italic"><tspan y="-41.275" x="73.419">&#x03d5;</tspan></text>
</g>
</svg>
