<?xml version="1.0" encoding="UTF-8" standalone="no"?>
<svg
   xmlns:dc="http://purl.org/dc/elements/1.1/"
   xmlns:cc="http://creativecommons.org/ns#"
   xmlns:rdf="http://www.w3.org/1999/02/22-rdf-syntax-ns#"
   xmlns:svg="http://www.w3.org/2000/svg"
   xmlns="http://www.w3.org/2000/svg"
   viewBox="0 0 135.93468 141.39732"
   height="141.39732"
   width="135.93468"
   xml:space="preserve"
   id="svg2"
   version="1.1"><metadata
     id="metadata8"><rdf:RDF><cc:Work
         rdf:about=""><dc:format>image/svg+xml</dc:format><dc:type
           rdf:resource="http://purl.org/dc/dcmitype/StillImage" /></cc:Work></rdf:RDF></metadata><defs
     id="defs6" /><g
     transform="matrix(1.3333333,0,0,-1.3333333,0,141.39733)"
     id="g10"><g
       transform="translate(36.802,36.095)"
       id="g12"><g
         id="g14"><g
           id="g16"><path
             id="path18"
             style="fill:none;stroke:#000000;stroke-width:0.3985;stroke-linecap:butt;stroke-linejoin:miter;stroke-miterlimit:10;stroke-dasharray:none;stroke-opacity:1"
             d="M 0,28.3468 H 28.3468 V 56.69362 H 0 V 28.3468" /><path
             id="path20"
             style="fill:#000000;fill-opacity:1;fill-rule:nonzero;stroke:#000000;stroke-width:0.3985;stroke-linecap:butt;stroke-linejoin:miter;stroke-miterlimit:10;stroke-dasharray:none;stroke-opacity:1"
             d="m 1.99255,28.3468 c 0,1.10048 -0.89209,1.99256 -1.99255,1.99256 -1.10046,0 -1.99255,-0.89208 -1.99255,-1.99256 0,-1.10046 0.89209,-1.99255 1.99255,-1.99255 1.10046,0 1.99255,0.89209 1.99255,1.99255 z" /><path
             id="path22"
             style="fill:#000000;fill-opacity:1;fill-rule:nonzero;stroke:#000000;stroke-width:0.3985;stroke-linecap:butt;stroke-linejoin:miter;stroke-miterlimit:10;stroke-dasharray:none;stroke-opacity:1"
             d="m 30.33936,28.3468 c 0,1.10048 -0.89208,1.99256 -1.99256,1.99256 -1.10046,0 -1.99255,-0.89208 -1.99255,-1.99256 0,-1.10046 0.89209,-1.99255 1.99255,-1.99255 1.10048,0 1.99256,0.89209 1.99256,1.99255 z" /><path
             id="path24"
             style="fill:#000000;fill-opacity:1;fill-rule:nonzero;stroke:#000000;stroke-width:0.3985;stroke-linecap:butt;stroke-linejoin:miter;stroke-miterlimit:10;stroke-dasharray:none;stroke-opacity:1"
             d="m 30.33936,56.69362 c 0,1.10046 -0.89208,1.99255 -1.99256,1.99255 -1.10046,0 -1.99255,-0.89209 -1.99255,-1.99255 0,-1.10048 0.89209,-1.99255 1.99255,-1.99255 1.10048,0 1.99256,0.89207 1.99256,1.99255 z" /><path
             id="path26"
             style="fill:#000000;fill-opacity:1;fill-rule:nonzero;stroke:#000000;stroke-width:0.3985;stroke-linecap:butt;stroke-linejoin:miter;stroke-miterlimit:10;stroke-dasharray:none;stroke-opacity:1"
             d="m 1.99255,56.69362 c 0,1.10046 -0.89209,1.99255 -1.99255,1.99255 -1.10046,0 -1.99255,-0.89209 -1.99255,-1.99255 0,-1.10048 0.89209,-1.99255 1.99255,-1.99255 1.10046,0 1.99255,0.89207 1.99255,1.99255 z" /><path
             id="path28"
             style="fill:none;stroke:#000000;stroke-width:0.3985;stroke-linecap:butt;stroke-linejoin:miter;stroke-miterlimit:10;stroke-dasharray:none;stroke-opacity:1"
             d="m 0,28.3468 v 0" /><g
             id="g30"><g
               transform="translate(-8.501,18.406)"
               id="g32"><g
                 id="g34"><g
                   transform="translate(-28.301,-54.501)"
                   id="g36"><text
                     id="text40"
                     style="font-variant:normal;font-weight:normal;font-size:9.96259975px;font-family:CMR10;-inkscape-font-specification:CMR10;writing-mode:lr-tb;fill:#000000;fill-opacity:1;fill-rule:nonzero;stroke:none"
                     transform="matrix(1,0,0,-1,28.301,54.501)"><tspan
                       id="tspan38"
                       y="0"
                       x="0">1</tspan></text>
<g
                     transform="translate(28.301,54.501)"
                     id="g42" /></g></g><g
                 transform="translate(8.501,-18.406)"
                 id="g44" /></g></g><path
             id="path46"
             style="fill:none;stroke:#000000;stroke-width:0.3985;stroke-linecap:butt;stroke-linejoin:miter;stroke-miterlimit:10;stroke-dasharray:none;stroke-opacity:1"
             d="m 28.3468,28.3468 v 0" /><g
             id="g48"><g
               transform="translate(31.866,18.406)"
               id="g50"><g
                 id="g52"><g
                   transform="translate(-68.668,-54.501)"
                   id="g54"><text
                     id="text58"
                     style="font-variant:normal;font-weight:normal;font-size:9.96259975px;font-family:CMR10;-inkscape-font-specification:CMR10;writing-mode:lr-tb;fill:#000000;fill-opacity:1;fill-rule:nonzero;stroke:none"
                     transform="matrix(1,0,0,-1,68.668,54.501)"><tspan
                       id="tspan56"
                       y="0"
                       x="0">2</tspan></text>
<g
                     transform="translate(68.668,54.501)"
                     id="g60" /></g></g><g
                 transform="translate(-31.866,-18.406)"
                 id="g62" /></g></g><path
             id="path64"
             style="fill:none;stroke:#000000;stroke-width:0.3985;stroke-linecap:butt;stroke-linejoin:miter;stroke-miterlimit:10;stroke-dasharray:none;stroke-opacity:1"
             d="m 28.3468,56.69362 v 0" /><g
             id="g66"><g
               transform="translate(31.866,60.212)"
               id="g68"><g
                 id="g70"><g
                   transform="translate(-68.668,-96.307)"
                   id="g72"><text
                     id="text76"
                     style="font-variant:normal;font-weight:normal;font-size:9.96259975px;font-family:CMR10;-inkscape-font-specification:CMR10;writing-mode:lr-tb;fill:#000000;fill-opacity:1;fill-rule:nonzero;stroke:none"
                     transform="matrix(1,0,0,-1,68.668,96.307)"><tspan
                       id="tspan74"
                       y="0"
                       x="0">3</tspan></text>
<g
                     transform="translate(68.668,96.307)"
                     id="g78" /></g></g><g
                 transform="translate(-31.866,-60.212)"
                 id="g80" /></g></g><path
             id="path82"
             style="fill:none;stroke:#000000;stroke-width:0.3985;stroke-linecap:butt;stroke-linejoin:miter;stroke-miterlimit:10;stroke-dasharray:none;stroke-opacity:1"
             d="m 0,56.69362 v 0" /><g
             id="g84"><g
               transform="translate(-8.501,60.212)"
               id="g86"><g
                 id="g88"><g
                   transform="translate(-28.301,-96.307)"
                   id="g90"><text
                     id="text94"
                     style="font-variant:normal;font-weight:normal;font-size:9.96259975px;font-family:CMR10;-inkscape-font-specification:CMR10;writing-mode:lr-tb;fill:#000000;fill-opacity:1;fill-rule:nonzero;stroke:none"
                     transform="matrix(1,0,0,-1,28.301,96.307)"><tspan
                       id="tspan92"
                       y="0"
                       x="0">4</tspan></text>
<g
                     transform="translate(28.301,96.307)"
                     id="g96" /></g></g><g
                 transform="translate(8.501,-60.212)"
                 id="g98" /></g></g><path
             id="path100"
             style="fill:none;stroke:#000000;stroke-width:0.3985;stroke-linecap:butt;stroke-linejoin:miter;stroke-miterlimit:10;stroke-dasharray:none;stroke-opacity:1"
             d="M -14.17339,0 H 42.5202" /><path
             id="path102"
             style="fill:#000000;fill-opacity:1;fill-rule:nonzero;stroke:#000000;stroke-width:0.3985;stroke-linecap:butt;stroke-linejoin:miter;stroke-miterlimit:10;stroke-dasharray:none;stroke-opacity:1"
             d="m -12.18083,0 c 0,1.10046 -0.89209,1.99255 -1.99256,1.99255 -1.10047,0 -1.99255,-0.89209 -1.99255,-1.99255 0,-1.10046 0.89208,-1.99255 1.99255,-1.99255 1.10047,0 1.99256,0.89209 1.99256,1.99255 z" /><path
             id="path104"
             style="fill:#000000;fill-opacity:1;fill-rule:nonzero;stroke:#000000;stroke-width:0.3985;stroke-linecap:butt;stroke-linejoin:miter;stroke-miterlimit:10;stroke-dasharray:none;stroke-opacity:1"
             d="m 16.16594,0 c 0,1.10046 -0.89208,1.99255 -1.99255,1.99255 -1.10047,0 -1.99256,-0.89209 -1.99256,-1.99255 0,-1.10046 0.89209,-1.99255 1.99256,-1.99255 1.10047,0 1.99255,0.89209 1.99255,1.99255 z" /><path
             id="path106"
             style="fill:#000000;fill-opacity:1;fill-rule:nonzero;stroke:#000000;stroke-width:0.3985;stroke-linecap:butt;stroke-linejoin:miter;stroke-miterlimit:10;stroke-dasharray:none;stroke-opacity:1"
             d="m 44.51276,0 c 0,1.10046 -0.89209,1.99255 -1.99256,1.99255 -1.10048,0 -1.99255,-0.89209 -1.99255,-1.99255 0,-1.10046 0.89207,-1.99255 1.99255,-1.99255 1.10047,0 1.99256,0.89209 1.99256,1.99255 z" /><path
             id="path108"
             style="fill:none;stroke:#000000;stroke-width:0.3985;stroke-linecap:butt;stroke-linejoin:miter;stroke-miterlimit:10;stroke-dasharray:none;stroke-opacity:1"
             d="M -14.17339,0 V 0" /><g
             id="g110"><g
               transform="translate(-21.083,-6.73)"
               id="g112"><g
                 id="g114"><g
                   transform="translate(-15.719,-29.365)"
                   id="g116"><text
                     id="text120"
                     style="font-variant:normal;font-weight:normal;font-size:4.98129988px;font-family:CMR5;-inkscape-font-specification:CMR5;writing-mode:lr-tb;fill:#000000;fill-opacity:1;fill-rule:nonzero;stroke:none"
                     transform="matrix(1,0,0,-1,15.719,29.365)"><tspan
                       id="tspan118"
                       y="0"
                       x="0">1</tspan></text>
<g
                     transform="translate(15.719,29.365)"
                     id="g122" /></g></g><g
                 transform="translate(21.083,6.73)"
                 id="g124" /></g></g><path
             id="path126"
             style="fill:none;stroke:#000000;stroke-width:0.3985;stroke-linecap:butt;stroke-linejoin:miter;stroke-miterlimit:10;stroke-dasharray:none;stroke-opacity:1"
             d="M 14.17339,0 V 0" /><g
             id="g128"><g
               transform="translate(9.03,-6.73)"
               id="g130"><g
                 id="g132"><g
                   transform="translate(-45.832,-29.365)"
                   id="g134"><text
                     id="text138"
                     style="font-variant:normal;font-weight:normal;font-size:4.98129988px;font-family:CMR5;-inkscape-font-specification:CMR5;writing-mode:lr-tb;fill:#000000;fill-opacity:1;fill-rule:nonzero;stroke:none"
                     transform="matrix(1,0,0,-1,45.832,29.365)"><tspan
                       id="tspan136"
                       y="0"
                       x="0">2</tspan></text>
<text
                     id="text142"
                     style="font-variant:normal;font-weight:normal;font-size:4.98129988px;font-family:CMMI5;-inkscape-font-specification:CMMI5;writing-mode:lr-tb;fill:#000000;fill-opacity:1;fill-rule:nonzero;stroke:none"
                     transform="matrix(1,0,0,-1,49.223,29.365)"><tspan
                       id="tspan140"
                       y="0"
                       x="0">,</tspan></text>
<text
                     id="text146"
                     style="font-variant:normal;font-weight:normal;font-size:4.98129988px;font-family:CMR5;-inkscape-font-specification:CMR5;writing-mode:lr-tb;fill:#000000;fill-opacity:1;fill-rule:nonzero;stroke:none"
                     transform="matrix(1,0,0,-1,52.728,29.365)"><tspan
                       id="tspan144"
                       y="0"
                       x="0">4</tspan></text>
<g
                     transform="translate(45.832,29.365)"
                     id="g148" /></g></g><g
                 transform="translate(-9.03,6.73)"
                 id="g150" /></g></g><path
             id="path152"
             style="fill:none;stroke:#000000;stroke-width:0.3985;stroke-linecap:butt;stroke-linejoin:miter;stroke-miterlimit:10;stroke-dasharray:none;stroke-opacity:1"
             d="M 42.5202,0 V 0" /><g
             id="g154"><g
               transform="translate(46.039,-6.73)"
               id="g156"><g
                 id="g158"><g
                   transform="translate(-82.841,-29.365)"
                   id="g160"><text
                     id="text164"
                     style="font-variant:normal;font-weight:normal;font-size:4.98129988px;font-family:CMR5;-inkscape-font-specification:CMR5;writing-mode:lr-tb;fill:#000000;fill-opacity:1;fill-rule:nonzero;stroke:none"
                     transform="matrix(1,0,0,-1,82.841,29.365)"><tspan
                       id="tspan162"
                       y="0"
                       x="0">3</tspan></text>
<g
                     transform="translate(82.841,29.365)"
                     id="g166" /></g></g><g
                 transform="translate(-46.039,6.73)"
                 id="g168" /></g></g><path
             id="path170"
             style="fill:none;stroke:#000000;stroke-width:0.3985;stroke-linecap:butt;stroke-linejoin:miter;stroke-miterlimit:10;stroke-dasharray:none;stroke-opacity:1"
             d="M 14.17339,22.67752 V 6.06776" /><g
             transform="rotate(-90,10.020955,-4.152435)"
             id="g172"><g
               id="g174"><path
                 id="path176"
                 style="fill:none;stroke:#000000;stroke-width:0.3985;stroke-linecap:round;stroke-linejoin:round;stroke-miterlimit:10;stroke-dasharray:none;stroke-opacity:1"
                 d="M -2.07224,2.39104 C -1.69365,0.95639 -0.84999,0.27895 0,0 -0.84999,-0.27895 -1.69365,-0.95639 -2.07224,-2.39104" /></g></g><g
             id="g178"><g
               transform="translate(17.693,11.931)"
               id="g180"><g
                 id="g182"><g
                   transform="translate(-54.495,-48.026)"
                   id="g184"><text
                     id="text188"
                     style="font-variant:normal;font-weight:normal;font-size:8.96640015px;font-family:CMMI9;-inkscape-font-specification:CMMI9;writing-mode:lr-tb;fill:#000000;fill-opacity:1;fill-rule:nonzero;stroke:none"
                     transform="matrix(1,0,0,-1,54.495,48.026)"><tspan
                       id="tspan186"
                       y="0"
                       x="0">f</tspan></text>
<g
                     transform="translate(54.495,48.026)"
                     id="g190" /></g></g><g
                 transform="translate(-17.693,-11.931)"
                 id="g192" /></g></g><g
             id="g194"><g
               transform="translate(-33.482,-30.837)"
               id="g196"><g
                 id="g198"><g
                   transform="translate(-3.32,-5.258)"
                   id="g200"><text
                     id="text204"
                     style="font-variant:normal;font-weight:normal;font-size:9.96259975px;font-family:CMR10;-inkscape-font-specification:CMR10;writing-mode:lr-tb;fill:#000000;fill-opacity:1;fill-rule:nonzero;stroke:none"
                     transform="matrix(1,0,0,-1,3.32,5.258)"><tspan
                       id="tspan202"
                       y="0"
                       x="0 4.9812999 8.8836508 13.86495 19.400171 28.252937 33.788158 38.769459 47.071293 52.052593 60.354427 65.335724 69.238075 74.7733 80.308517 83.076126 87.005379">graphhomomorphism</tspan></text>
<g
                     transform="translate(3.32,5.258)"
                     id="g206" /></g></g><g
                 transform="translate(33.482,30.837)"
                 id="g208" /></g></g></g></g></g></g></svg>