<?xml version="1.0" encoding="UTF-8" standalone="no"?>
<!DOCTYPE svg PUBLIC "-//W3C//DTD SVG 1.1//EN" "http://www.w3.org/Graphics/SVG/1.1/DTD/svg11.dtd">
<svg xmlns="http://www.w3.org/2000/svg" xmlns:xlink="http://www.w3.org/1999/xlink" version="1.1" width="60.152pt" height="62.311pt" viewBox="0 0 60.152 62.311">
<g enable-background="new">
<path transform="matrix(1,0,0,-1,-2.352,63.224)" d="M 30.33936 14.17339 C 30.33936 15.27386 29.44728 16.16594 28.3468 16.16594 C 27.24634 16.16594 26.35425 15.27386 26.35425 14.17339 C 26.35425 13.07292 27.24634 12.18083 28.3468 12.18083 C 29.44728 12.18083 30.33936 13.07292 30.33936 14.17339 Z M 28.3468 14.17339 "/>
<path transform="matrix(1,0,0,-1,-2.352,63.224)" stroke-width=".3985" stroke-linecap="butt" stroke-miterlimit="10" stroke-linejoin="miter" fill="none" stroke="#000000" d="M 30.33936 14.17339 C 30.33936 15.27386 29.44728 16.16594 28.3468 16.16594 C 27.24634 16.16594 26.35425 15.27386 26.35425 14.17339 C 26.35425 13.07292 27.24634 12.18083 28.3468 12.18083 C 29.44728 12.18083 30.33936 13.07292 30.33936 14.17339 Z M 28.3468 14.17339 "/>
<path transform="matrix(1,0,0,-1,-2.352,63.224)" stroke-width=".3985" stroke-linecap="butt" stroke-miterlimit="10" stroke-linejoin="miter" fill="none" stroke="#000000" d="M 28.3468 14.17339 L 28.3468 14.17339 "/>
<text xml:space="preserve" transform="matrix(1 0 -0 1 .0000019073487 62.310998)" font-size="9.9626" font-family="CMR10"><tspan y="-3.321" x="23.504">0</tspan></text>
<path transform="matrix(1,0,0,-1,-2.352,63.224)" d="M 58.68617 14.17339 C 58.68617 15.27386 57.79408 16.16594 56.69362 16.16594 C 55.59314 16.16594 54.70107 15.27386 54.70107 14.17339 C 54.70107 13.07292 55.59314 12.18083 56.69362 12.18083 C 57.79408 12.18083 58.68617 13.07292 58.68617 14.17339 Z M 56.69362 14.17339 "/>
<path transform="matrix(1,0,0,-1,-2.352,63.224)" stroke-width=".3985" stroke-linecap="butt" stroke-miterlimit="10" stroke-linejoin="miter" fill="none" stroke="#000000" d="M 58.68617 14.17339 C 58.68617 15.27386 57.79408 16.16594 56.69362 16.16594 C 55.59314 16.16594 54.70107 15.27386 54.70107 14.17339 C 54.70107 13.07292 55.59314 12.18083 56.69362 12.18083 C 57.79408 12.18083 58.68617 13.07292 58.68617 14.17339 Z M 56.69362 14.17339 "/>
<path transform="matrix(1,0,0,-1,-2.352,63.224)" stroke-width=".3985" stroke-linecap="butt" stroke-miterlimit="10" stroke-linejoin="miter" fill="none" stroke="#000000" d="M 56.69362 14.17339 L 56.69362 14.17339 "/>
<text xml:space="preserve" transform="matrix(1 0 -0 1 -.0000038146974 62.310998)" font-size="9.9626" font-family="CMR10"><tspan y="-3.321" x="51.851">1</tspan></text>
<path transform="matrix(1,0,0,-1,-2.352,63.224)" stroke-width=".3985" stroke-linecap="butt" stroke-miterlimit="10" stroke-linejoin="miter" fill="none" stroke="#000000" d="M 28.3468 14.17339 L 56.69362 14.17339 "/>
<path transform="matrix(1,0,0,-1,-2.352,63.224)" d="M 16.16594 28.3468 C 16.16594 29.44728 15.27386 30.33936 14.17339 30.33936 C 13.07292 30.33936 12.18083 29.44728 12.18083 28.3468 C 12.18083 27.24634 13.07292 26.35425 14.17339 26.35425 C 15.27386 26.35425 16.16594 27.24634 16.16594 28.3468 Z M 14.17339 28.3468 "/>
<path transform="matrix(1,0,0,-1,-2.352,63.224)" stroke-width=".3985" stroke-linecap="butt" stroke-miterlimit="10" stroke-linejoin="miter" fill="none" stroke="#000000" d="M 16.16594 28.3468 C 16.16594 29.44728 15.27386 30.33936 14.17339 30.33936 C 13.07292 30.33936 12.18083 29.44728 12.18083 28.3468 C 12.18083 27.24634 13.07292 26.35425 14.17339 26.35425 C 15.27386 26.35425 16.16594 27.24634 16.16594 28.3468 Z M 14.17339 28.3468 "/>
<path transform="matrix(1,0,0,-1,-2.352,63.224)" stroke-width=".3985" stroke-linecap="butt" stroke-miterlimit="10" stroke-linejoin="miter" fill="none" stroke="#000000" d="M 14.17339 28.3468 L 14.17339 28.3468 "/>
<text xml:space="preserve" transform="matrix(1 0 -0 1 0 62.310998)" font-size="9.9626" font-family="CMR10"><tspan y="-24.224" x="3.32">0</tspan></text>
<path transform="matrix(1,0,0,-1,-2.352,63.224)" d="M 16.16594 56.69362 C 16.16594 57.79408 15.27386 58.68617 14.17339 58.68617 C 13.07292 58.68617 12.18083 57.79408 12.18083 56.69362 C 12.18083 55.59314 13.07292 54.70107 14.17339 54.70107 C 15.27386 54.70107 16.16594 55.59314 16.16594 56.69362 Z M 14.17339 56.69362 "/>
<path transform="matrix(1,0,0,-1,-2.352,63.224)" stroke-width=".3985" stroke-linecap="butt" stroke-miterlimit="10" stroke-linejoin="miter" fill="none" stroke="#000000" d="M 16.16594 56.69362 C 16.16594 57.79408 15.27386 58.68617 14.17339 58.68617 C 13.07292 58.68617 12.18083 57.79408 12.18083 56.69362 C 12.18083 55.59314 13.07292 54.70107 14.17339 54.70107 C 15.27386 54.70107 16.16594 55.59314 16.16594 56.69362 Z M 14.17339 56.69362 "/>
<path transform="matrix(1,0,0,-1,-2.352,63.224)" stroke-width=".3985" stroke-linecap="butt" stroke-miterlimit="10" stroke-linejoin="miter" fill="none" stroke="#000000" d="M 14.17339 56.69362 L 14.17339 56.69362 "/>
<text xml:space="preserve" transform="matrix(1 0 -0 1 0 62.310998)" font-size="9.9626" font-family="CMR10"><tspan y="-52.57" x="3.32">1</tspan></text>
<path transform="matrix(1,0,0,-1,-2.352,63.224)" stroke-width=".3985" stroke-linecap="butt" stroke-miterlimit="10" stroke-linejoin="miter" fill="none" stroke="#000000" d="M 14.17339 28.3468 L 14.17339 56.69362 "/>
<path transform="matrix(1,0,0,-1,-2.352,63.224)" stroke-width=".3985" stroke-linecap="butt" stroke-miterlimit="10" stroke-linejoin="miter" fill="none" stroke="#000000" d="M 28.3468 28.3468 L 56.69362 56.69362 "/>
<path transform="matrix(1,0,0,-1,-2.352,63.224)" stroke-width=".3985" stroke-linecap="butt" stroke-miterlimit="10" stroke-linejoin="miter" fill="none" stroke="#000000" d="M 28.3468 56.69362 L 56.69362 28.3468 "/>
<path transform="matrix(1,0,0,-1,-2.352,63.224)" d="M 30.33936 28.3468 C 30.33936 29.44728 29.44728 30.33936 28.3468 30.33936 C 27.24634 30.33936 26.35425 29.44728 26.35425 28.3468 C 26.35425 27.24634 27.24634 26.35425 28.3468 26.35425 C 29.44728 26.35425 30.33936 27.24634 30.33936 28.3468 Z M 28.3468 28.3468 " fill="#ff0000"/>
<path transform="matrix(1,0,0,-1,-2.352,63.224)" stroke-width=".3985" stroke-linecap="butt" stroke-miterlimit="10" stroke-linejoin="miter" fill="none" stroke="#ff0000" d="M 30.33936 28.3468 C 30.33936 29.44728 29.44728 30.33936 28.3468 30.33936 C 27.24634 30.33936 26.35425 29.44728 26.35425 28.3468 C 26.35425 27.24634 27.24634 26.35425 28.3468 26.35425 C 29.44728 26.35425 30.33936 27.24634 30.33936 28.3468 Z M 28.3468 28.3468 "/>
<path transform="matrix(1,0,0,-1,-2.352,63.224)" d="M 30.33936 56.69362 C 30.33936 57.79408 29.44728 58.68617 28.3468 58.68617 C 27.24634 58.68617 26.35425 57.79408 26.35425 56.69362 C 26.35425 55.59314 27.24634 54.70107 28.3468 54.70107 C 29.44728 54.70107 30.33936 55.59314 30.33936 56.69362 Z M 28.3468 56.69362 " fill="#ff0000"/>
<path transform="matrix(1,0,0,-1,-2.352,63.224)" stroke-width=".3985" stroke-linecap="butt" stroke-miterlimit="10" stroke-linejoin="miter" fill="none" stroke="#ff0000" d="M 30.33936 56.69362 C 30.33936 57.79408 29.44728 58.68617 28.3468 58.68617 C 27.24634 58.68617 26.35425 57.79408 26.35425 56.69362 C 26.35425 55.59314 27.24634 54.70107 28.3468 54.70107 C 29.44728 54.70107 30.33936 55.59314 30.33936 56.69362 Z M 28.3468 56.69362 "/>
<path transform="matrix(1,0,0,-1,-2.352,63.224)" d="M 58.68617 28.3468 C 58.68617 29.44728 57.79408 30.33936 56.69362 30.33936 C 55.59314 30.33936 54.70107 29.44728 54.70107 28.3468 C 54.70107 27.24634 55.59314 26.35425 56.69362 26.35425 C 57.79408 26.35425 58.68617 27.24634 58.68617 28.3468 Z M 56.69362 28.3468 " fill="#ff0000"/>
<path transform="matrix(1,0,0,-1,-2.352,63.224)" stroke-width=".3985" stroke-linecap="butt" stroke-miterlimit="10" stroke-linejoin="miter" fill="none" stroke="#ff0000" d="M 58.68617 28.3468 C 58.68617 29.44728 57.79408 30.33936 56.69362 30.33936 C 55.59314 30.33936 54.70107 29.44728 54.70107 28.3468 C 54.70107 27.24634 55.59314 26.35425 56.69362 26.35425 C 57.79408 26.35425 58.68617 27.24634 58.68617 28.3468 Z M 56.69362 28.3468 "/>
<path transform="matrix(1,0,0,-1,-2.352,63.224)" d="M 58.68617 56.69362 C 58.68617 57.79408 57.79408 58.68617 56.69362 58.68617 C 55.59314 58.68617 54.70107 57.79408 54.70107 56.69362 C 54.70107 55.59314 55.59314 54.70107 56.69362 54.70107 C 57.79408 54.70107 58.68617 55.59314 58.68617 56.69362 Z M 56.69362 56.69362 " fill="#ff0000"/>
<path transform="matrix(1,0,0,-1,-2.352,63.224)" stroke-width=".3985" stroke-linecap="butt" stroke-miterlimit="10" stroke-linejoin="miter" fill="none" stroke="#ff0000" d="M 58.68617 56.69362 C 58.68617 57.79408 57.79408 58.68617 56.69362 58.68617 C 55.59314 58.68617 54.70107 57.79408 54.70107 56.69362 C 54.70107 55.59314 55.59314 54.70107 56.69362 54.70107 C 57.79408 54.70107 58.68617 55.59314 58.68617 56.69362 Z M 56.69362 56.69362 "/>
</g>
</svg>
