<?xml version="1.0" encoding="UTF-8" standalone="no"?>
<!DOCTYPE svg PUBLIC "-//W3C//DTD SVG 1.1//EN" "http://www.w3.org/Graphics/SVG/1.1/DTD/svg11.dtd">
<svg xmlns="http://www.w3.org/2000/svg" xmlns:xlink="http://www.w3.org/1999/xlink" version="1.1" width="227.608pt" height="100.927pt" viewBox="0 0 227.608 100.927">
<g enable-background="new">
<path transform="matrix(1,0,0,-1,54.341,50.464)" stroke-width=".3985" stroke-linecap="butt" stroke-miterlimit="10" stroke-linejoin="miter" fill="none" stroke="#000000" d="M 39.68536 0 L 19.84268 34.36862 L -19.84268 34.36862 L -39.68536 0 L -19.84268 -34.36862 L 19.84268 -34.36862 L 39.68536 0 Z M 39.68536 0 Z M 19.84268 -34.36862 Z M -19.84268 -34.36862 Z M -39.68536 0 Z M -19.84268 34.36862 Z M 19.84268 34.36862 "/>
<text xml:space="preserve" transform="matrix(1 0 -0 1 .0000076293949 100.927)" font-size="9.9626" font-family="CMR10"><tspan y="-47.253" x="100.38">0</tspan></text>
<text xml:space="preserve" transform="matrix(1 0 -0 1 0 100.927)" font-size="9.9626" font-family="CMR10"><tspan y="-3.321" x="71.693">5</tspan></text>
<text xml:space="preserve" transform="matrix(1 0 -0 1 0 100.927)" font-size="9.9626" font-family="CMR10"><tspan y="-3.321" x="32.008">4</tspan></text>
<text xml:space="preserve" transform="matrix(1 0 -0 1 -.00000023841859 100.927)" font-size="9.9626" font-family="CMR10"><tspan y="-47.253" x="3.32">3</tspan></text>
<text xml:space="preserve" transform="matrix(1 0 -0 1 0 100.927)" font-size="9.9626" font-family="CMR10"><tspan y="-91.186" x="32.008">2</tspan></text>
<text xml:space="preserve" transform="matrix(1 0 -0 1 0 100.927)" font-size="9.9626" font-family="CMR10"><tspan y="-91.186" x="71.693">1</tspan></text>
<path transform="matrix(1,0,0,-1,54.341,50.464)" d="M 42.6742 0 C 42.6742 1.6507 41.33607 2.98883 39.68536 2.98883 C 38.03465 2.98883 36.69653 1.6507 36.69653 0 C 36.69653 -1.6507 38.03465 -2.98883 39.68536 -2.98883 C 41.33607 -2.98883 42.6742 -1.6507 42.6742 0 Z M 39.68536 0 " fill="#0000ff"/>
<path transform="matrix(1,0,0,-1,54.341,50.464)" stroke-width=".3985" stroke-linecap="butt" stroke-miterlimit="10" stroke-linejoin="miter" fill="none" stroke="#0000ff" d="M 42.6742 0 C 42.6742 1.6507 41.33607 2.98883 39.68536 2.98883 C 38.03465 2.98883 36.69653 1.6507 36.69653 0 C 36.69653 -1.6507 38.03465 -2.98883 39.68536 -2.98883 C 41.33607 -2.98883 42.6742 -1.6507 42.6742 0 Z M 39.68536 0 "/>
<path transform="matrix(1,0,0,-1,54.341,50.464)" d="M 22.83151 -34.36862 C 22.83151 -32.71791 21.4934 -31.37979 19.84268 -31.37979 C 18.19197 -31.37979 16.85385 -32.71791 16.85385 -34.36862 C 16.85385 -36.01933 18.19197 -37.35745 19.84268 -37.35745 C 21.4934 -37.35745 22.83151 -36.01933 22.83151 -34.36862 Z M 19.84268 -34.36862 " fill="#ec008c"/>
<path transform="matrix(1,0,0,-1,54.341,50.464)" stroke-width=".3985" stroke-linecap="butt" stroke-miterlimit="10" stroke-linejoin="miter" fill="none" stroke="#ec008c" d="M 22.83151 -34.36862 C 22.83151 -32.71791 21.4934 -31.37979 19.84268 -31.37979 C 18.19197 -31.37979 16.85385 -32.71791 16.85385 -34.36862 C 16.85385 -36.01933 18.19197 -37.35745 19.84268 -37.35745 C 21.4934 -37.35745 22.83151 -36.01933 22.83151 -34.36862 Z M 19.84268 -34.36862 "/>
<path transform="matrix(1,0,0,-1,54.341,50.464)" d="M -16.85385 -34.36862 C -16.85385 -32.71791 -18.19197 -31.37979 -19.84268 -31.37979 C -21.4934 -31.37979 -22.83151 -32.71791 -22.83151 -34.36862 C -22.83151 -36.01933 -21.4934 -37.35745 -19.84268 -37.35745 C -18.19197 -37.35745 -16.85385 -36.01933 -16.85385 -34.36862 Z M -19.84268 -34.36862 " fill="#0000ff"/>
<path transform="matrix(1,0,0,-1,54.341,50.464)" stroke-width=".3985" stroke-linecap="butt" stroke-miterlimit="10" stroke-linejoin="miter" fill="none" stroke="#0000ff" d="M -16.85385 -34.36862 C -16.85385 -32.71791 -18.19197 -31.37979 -19.84268 -31.37979 C -21.4934 -31.37979 -22.83151 -32.71791 -22.83151 -34.36862 C -22.83151 -36.01933 -21.4934 -37.35745 -19.84268 -37.35745 C -18.19197 -37.35745 -16.85385 -36.01933 -16.85385 -34.36862 Z M -19.84268 -34.36862 "/>
<path transform="matrix(1,0,0,-1,54.341,50.464)" d="M -36.69653 0 C -36.69653 1.6507 -38.03465 2.98883 -39.68536 2.98883 C -41.33607 2.98883 -42.6742 1.6507 -42.6742 0 C -42.6742 -1.6507 -41.33607 -2.98883 -39.68536 -2.98883 C -38.03465 -2.98883 -36.69653 -1.6507 -36.69653 0 Z M -39.68536 0 " fill="#ec008c"/>
<path transform="matrix(1,0,0,-1,54.341,50.464)" stroke-width=".3985" stroke-linecap="butt" stroke-miterlimit="10" stroke-linejoin="miter" fill="none" stroke="#ec008c" d="M -36.69653 0 C -36.69653 1.6507 -38.03465 2.98883 -39.68536 2.98883 C -41.33607 2.98883 -42.6742 1.6507 -42.6742 0 C -42.6742 -1.6507 -41.33607 -2.98883 -39.68536 -2.98883 C -38.03465 -2.98883 -36.69653 -1.6507 -36.69653 0 Z M -39.68536 0 "/>
<path transform="matrix(1,0,0,-1,54.341,50.464)" d="M -16.85385 34.36862 C -16.85385 36.01933 -18.19197 37.35745 -19.84268 37.35745 C -21.4934 37.35745 -22.83151 36.01933 -22.83151 34.36862 C -22.83151 32.71791 -21.4934 31.37979 -19.84268 31.37979 C -18.19197 31.37979 -16.85385 32.71791 -16.85385 34.36862 Z M -19.84268 34.36862 " fill="#0000ff"/>
<path transform="matrix(1,0,0,-1,54.341,50.464)" stroke-width=".3985" stroke-linecap="butt" stroke-miterlimit="10" stroke-linejoin="miter" fill="none" stroke="#0000ff" d="M -16.85385 34.36862 C -16.85385 36.01933 -18.19197 37.35745 -19.84268 37.35745 C -21.4934 37.35745 -22.83151 36.01933 -22.83151 34.36862 C -22.83151 32.71791 -21.4934 31.37979 -19.84268 31.37979 C -18.19197 31.37979 -16.85385 32.71791 -16.85385 34.36862 Z M -19.84268 34.36862 "/>
<path transform="matrix(1,0,0,-1,54.341,50.464)" d="M 22.83151 34.36862 C 22.83151 36.01933 21.4934 37.35745 19.84268 37.35745 C 18.19197 37.35745 16.85385 36.01933 16.85385 34.36862 C 16.85385 32.71791 18.19197 31.37979 19.84268 31.37979 C 21.4934 31.37979 22.83151 32.71791 22.83151 34.36862 Z M 19.84268 34.36862 " fill="#ec008c"/>
<path transform="matrix(1,0,0,-1,54.341,50.464)" stroke-width=".3985" stroke-linecap="butt" stroke-miterlimit="10" stroke-linejoin="miter" fill="none" stroke="#ec008c" d="M 22.83151 34.36862 C 22.83151 36.01933 21.4934 37.35745 19.84268 37.35745 C 18.19197 37.35745 16.85385 36.01933 16.85385 34.36862 C 16.85385 32.71791 18.19197 31.37979 19.84268 31.37979 C 21.4934 31.37979 22.83151 32.71791 22.83151 34.36862 Z M 19.84268 34.36862 "/>
<path transform="matrix(1,0,0,-1,54.341,50.464)" stroke-width=".3985" stroke-linecap="butt" stroke-miterlimit="10" stroke-linejoin="miter" fill="none" stroke="#000000" d="M 62.36288 0 L 87.47676 0 "/>
<path transform="matrix(1,0,0,-1,142.01703,50.464)" stroke-width=".3985" stroke-linecap="round" stroke-linejoin="round" fill="none" stroke="#000000" d="M -2.07224 2.39104 C -1.69365 .95639 -.84999 .27895 0 0 C -.84999 -.27895 -1.69365 -.95639 -2.07224 -2.39104 "/>
<text xml:space="preserve" transform="matrix(1 0 -0 1 -.0000076293949 100.927)" font-size="9.9626" font-family="CMMI10" font-style="italic"><tspan y="-58.755" x="126.484">f</tspan></text>
<path transform="matrix(1,0,0,-1,54.341,50.464)" stroke-width=".3985" stroke-linecap="butt" stroke-miterlimit="10" stroke-linejoin="miter" fill="none" stroke="#000000" d="M 141.73404 28.3468 L 141.73404 -28.3468 "/>
<path transform="matrix(1,0,0,-1,54.341,50.464)" stroke-width=".3985" stroke-linecap="butt" stroke-miterlimit="10" stroke-linejoin="miter" fill="none" stroke="#000000" d="M 113.38724 0 L 170.08086 0 "/>
<path transform="matrix(1,0,0,-1,54.341,50.464)" d="M 144.72287 0 C 144.72287 1.6507 143.38475 2.98883 141.73404 2.98883 C 140.08333 2.98883 138.74521 1.6507 138.74521 0 C 138.74521 -1.6507 140.08333 -2.98883 141.73404 -2.98883 C 143.38475 -2.98883 144.72287 -1.6507 144.72287 0 Z M 141.73404 0 " fill="#008080"/>
<path transform="matrix(1,0,0,-1,54.341,50.464)" stroke-width=".3985" stroke-linecap="butt" stroke-miterlimit="10" stroke-linejoin="miter" fill="none" stroke="#008080" d="M 144.72287 0 C 144.72287 1.6507 143.38475 2.98883 141.73404 2.98883 C 140.08333 2.98883 138.74521 1.6507 138.74521 0 C 138.74521 -1.6507 140.08333 -2.98883 141.73404 -2.98883 C 143.38475 -2.98883 144.72287 -1.6507 144.72287 0 Z M 141.73404 0 "/>
<path transform="matrix(1,0,0,-1,54.341,50.464)" d="M 144.72287 28.3468 C 144.72287 29.99751 143.38475 31.33563 141.73404 31.33563 C 140.08333 31.33563 138.74521 29.99751 138.74521 28.3468 C 138.74521 26.69609 140.08333 25.35797 141.73404 25.35797 C 143.38475 25.35797 144.72287 26.69609 144.72287 28.3468 Z M 141.73404 28.3468 " fill="#ff8000"/>
<path transform="matrix(1,0,0,-1,54.341,50.464)" stroke-width=".3985" stroke-linecap="butt" stroke-miterlimit="10" stroke-linejoin="miter" fill="none" stroke="#ff8000" d="M 144.72287 28.3468 C 144.72287 29.99751 143.38475 31.33563 141.73404 31.33563 C 140.08333 31.33563 138.74521 29.99751 138.74521 28.3468 C 138.74521 26.69609 140.08333 25.35797 141.73404 25.35797 C 143.38475 25.35797 144.72287 26.69609 144.72287 28.3468 Z M 141.73404 28.3468 "/>
<path transform="matrix(1,0,0,-1,54.341,50.464)" d="M 144.72287 -28.3468 C 144.72287 -26.69609 143.38475 -25.35797 141.73404 -25.35797 C 140.08333 -25.35797 138.74521 -26.69609 138.74521 -28.3468 C 138.74521 -29.99751 140.08333 -31.33563 141.73404 -31.33563 C 143.38475 -31.33563 144.72287 -29.99751 144.72287 -28.3468 Z M 141.73404 -28.3468 " fill="#ff8000"/>
<path transform="matrix(1,0,0,-1,54.341,50.464)" stroke-width=".3985" stroke-linecap="butt" stroke-miterlimit="10" stroke-linejoin="miter" fill="none" stroke="#ff8000" d="M 144.72287 -28.3468 C 144.72287 -26.69609 143.38475 -25.35797 141.73404 -25.35797 C 140.08333 -25.35797 138.74521 -26.69609 138.74521 -28.3468 C 138.74521 -29.99751 140.08333 -31.33563 141.73404 -31.33563 C 143.38475 -31.33563 144.72287 -29.99751 144.72287 -28.3468 Z M 141.73404 -28.3468 "/>
<path transform="matrix(1,0,0,-1,54.341,50.464)" d="M 173.06969 0 C 173.06969 1.6507 171.73155 2.98883 170.08086 2.98883 C 168.43015 2.98883 167.09203 1.6507 167.09203 0 C 167.09203 -1.6507 168.43015 -2.98883 170.08086 -2.98883 C 171.73155 -2.98883 173.06969 -1.6507 173.06969 0 Z M 170.08086 0 " fill="#ff8000"/>
<path transform="matrix(1,0,0,-1,54.341,50.464)" stroke-width=".3985" stroke-linecap="butt" stroke-miterlimit="10" stroke-linejoin="miter" fill="none" stroke="#ff8000" d="M 173.06969 0 C 173.06969 1.6507 171.73155 2.98883 170.08086 2.98883 C 168.43015 2.98883 167.09203 1.6507 167.09203 0 C 167.09203 -1.6507 168.43015 -2.98883 170.08086 -2.98883 C 171.73155 -2.98883 173.06969 -1.6507 173.06969 0 Z M 170.08086 0 "/>
<path transform="matrix(1,0,0,-1,54.341,50.464)" d="M 116.37607 0 C 116.37607 1.6507 115.03793 2.98883 113.38724 2.98883 C 111.73653 2.98883 110.3984 1.6507 110.3984 0 C 110.3984 -1.6507 111.73653 -2.98883 113.38724 -2.98883 C 115.03793 -2.98883 116.37607 -1.6507 116.37607 0 Z M 113.38724 0 " fill="#ff8000"/>
<path transform="matrix(1,0,0,-1,54.341,50.464)" stroke-width=".3985" stroke-linecap="butt" stroke-miterlimit="10" stroke-linejoin="miter" fill="none" stroke="#ff8000" d="M 116.37607 0 C 116.37607 1.6507 115.03793 2.98883 113.38724 2.98883 C 111.73653 2.98883 110.3984 1.6507 110.3984 0 C 110.3984 -1.6507 111.73653 -2.98883 113.38724 -2.98883 C 115.03793 -2.98883 116.37607 -1.6507 116.37607 0 Z M 113.38724 0 "/>
</g>
</svg>
