<?xml version="1.0" encoding="UTF-8" standalone="no"?>
<!DOCTYPE svg PUBLIC "-//W3C//DTD SVG 1.1//EN" "http://www.w3.org/Graphics/SVG/1.1/DTD/svg11.dtd">
<svg xmlns="http://www.w3.org/2000/svg" xmlns:xlink="http://www.w3.org/1999/xlink" version="1.1" width="133.752pt" height="24.317pt" viewBox="0 0 133.752 24.317">
<g enable-background="new">
<path transform="matrix(1,0,0,-1,11.056,11.056)" d="M 1.99255 0 C 1.99255 1.10046 1.10046 1.99255 0 1.99255 C -1.10046 1.99255 -1.99255 1.10046 -1.99255 0 C -1.99255 -1.10046 -1.10046 -1.99255 0 -1.99255 C 1.10046 -1.99255 1.99255 -1.10046 1.99255 0 Z M 0 0 "/>
<path transform="matrix(1,0,0,-1,11.056,11.056)" stroke-width=".3985" stroke-linecap="butt" stroke-miterlimit="10" stroke-linejoin="miter" fill="none" stroke="#000000" d="M 1.99255 0 C 1.99255 1.10046 1.10046 1.99255 0 1.99255 C -1.10046 1.99255 -1.99255 1.10046 -1.99255 0 C -1.99255 -1.10046 -1.10046 -1.99255 0 -1.99255 C 1.10046 -1.99255 1.99255 -1.10046 1.99255 0 Z M 0 0 "/>
<path transform="matrix(1,0,0,-1,11.056,11.056)" stroke-width=".3985" stroke-linecap="butt" stroke-miterlimit="10" stroke-linejoin="miter" fill="none" stroke="#000000" d="M 0 0 L 0 0 "/>
<text xml:space="preserve" transform="matrix(1 0 -0 1 0 24.316998)" font-size="9.9626" font-family="CMR10"><tspan y="-3.321" x="8.566">0</tspan></text>
<path transform="matrix(1,0,0,-1,11.056,11.056)" stroke-width=".3985" stroke-linecap="butt" stroke-miterlimit="10" stroke-linejoin="miter" fill="none" stroke="#000000" d="M 0 0 C -10.85733 9.11052 9.11052 10.85733 0 0 "/>
<path transform="matrix(1,0,0,-1,11.056,11.056)" d="M 30.33936 0 C 30.33936 1.10046 29.44728 1.99255 28.3468 1.99255 C 27.24634 1.99255 26.35425 1.10046 26.35425 0 C 26.35425 -1.10046 27.24634 -1.99255 28.3468 -1.99255 C 29.44728 -1.99255 30.33936 -1.10046 30.33936 0 Z M 28.3468 0 "/>
<path transform="matrix(1,0,0,-1,11.056,11.056)" stroke-width=".3985" stroke-linecap="butt" stroke-miterlimit="10" stroke-linejoin="miter" fill="none" stroke="#000000" d="M 30.33936 0 C 30.33936 1.10046 29.44728 1.99255 28.3468 1.99255 C 27.24634 1.99255 26.35425 1.10046 26.35425 0 C 26.35425 -1.10046 27.24634 -1.99255 28.3468 -1.99255 C 29.44728 -1.99255 30.33936 -1.10046 30.33936 0 Z M 28.3468 0 "/>
<path transform="matrix(1,0,0,-1,11.056,11.056)" stroke-width=".3985" stroke-linecap="butt" stroke-miterlimit="10" stroke-linejoin="miter" fill="none" stroke="#000000" d="M 28.3468 0 L 28.3468 0 "/>
<text xml:space="preserve" transform="matrix(1 0 -0 1 .0000038146974 24.316998)" font-size="9.9626" font-family="CMR10"><tspan y="-3.321" x="36.912">1</tspan></text>
<path transform="matrix(1,0,0,-1,11.056,11.056)" stroke-width=".3985" stroke-linecap="butt" stroke-miterlimit="10" stroke-linejoin="miter" fill="none" stroke="#000000" d="M 28.3468 0 C 17.48946 9.11052 37.45734 10.85733 28.3468 0 "/>
<path transform="matrix(1,0,0,-1,11.056,11.056)" d="M 58.68617 0 C 58.68617 1.10046 57.79408 1.99255 56.69362 1.99255 C 55.59314 1.99255 54.70107 1.10046 54.70107 0 C 54.70107 -1.10046 55.59314 -1.99255 56.69362 -1.99255 C 57.79408 -1.99255 58.68617 -1.10046 58.68617 0 Z M 56.69362 0 "/>
<path transform="matrix(1,0,0,-1,11.056,11.056)" stroke-width=".3985" stroke-linecap="butt" stroke-miterlimit="10" stroke-linejoin="miter" fill="none" stroke="#000000" d="M 58.68617 0 C 58.68617 1.10046 57.79408 1.99255 56.69362 1.99255 C 55.59314 1.99255 54.70107 1.10046 54.70107 0 C 54.70107 -1.10046 55.59314 -1.99255 56.69362 -1.99255 C 57.79408 -1.99255 58.68617 -1.10046 58.68617 0 Z M 56.69362 0 "/>
<path transform="matrix(1,0,0,-1,11.056,11.056)" stroke-width=".3985" stroke-linecap="butt" stroke-miterlimit="10" stroke-linejoin="miter" fill="none" stroke="#000000" d="M 56.69362 0 L 56.69362 0 "/>
<text xml:space="preserve" transform="matrix(1 0 -0 1 0 24.316998)" font-size="9.9626" font-family="CMR10"><tspan y="-3.321" x="65.259">2</tspan></text>
<path transform="matrix(1,0,0,-1,11.056,11.056)" stroke-width=".3985" stroke-linecap="butt" stroke-miterlimit="10" stroke-linejoin="miter" fill="none" stroke="#000000" d="M 56.69362 0 C 45.83627 9.11052 65.80414 10.85733 56.69362 0 "/>
<text xml:space="preserve" transform="matrix(1 0 -0 1 0 24.317)" font-size="9.9626" font-family="CMSY10" font-style="italic"><tspan y="-11.047" x="90.284 94.717357 99.14075">&#x00b7;&#x00b7;&#x00b7;</tspan></text>
<path transform="matrix(1,0,0,-1,11.056,11.056)" d="M 115.37979 0 C 115.37979 1.10046 114.4877 1.99255 113.38724 1.99255 C 112.28676 1.99255 111.39468 1.10046 111.39468 0 C 111.39468 -1.10046 112.28676 -1.99255 113.38724 -1.99255 C 114.4877 -1.99255 115.37979 -1.10046 115.37979 0 Z M 113.38724 0 "/>
<path transform="matrix(1,0,0,-1,11.056,11.056)" stroke-width=".3985" stroke-linecap="butt" stroke-miterlimit="10" stroke-linejoin="miter" fill="none" stroke="#000000" d="M 115.37979 0 C 115.37979 1.10046 114.4877 1.99255 113.38724 1.99255 C 112.28676 1.99255 111.39468 1.10046 111.39468 0 C 111.39468 -1.10046 112.28676 -1.99255 113.38724 -1.99255 C 114.4877 -1.99255 115.37979 -1.10046 115.37979 0 Z M 113.38724 0 "/>
<path transform="matrix(1,0,0,-1,11.056,11.056)" stroke-width=".3985" stroke-linecap="butt" stroke-miterlimit="10" stroke-linejoin="miter" fill="none" stroke="#000000" d="M 113.38724 0 L 113.38724 0 "/>
<text xml:space="preserve" transform="matrix(1 0 -0 1 0 24.317)" font-size="9.9626" font-family="CMMI10" font-style="italic"><tspan y="-5.452" x="121.452">n</tspan></text>
<path transform="matrix(1,0,0,-1,11.056,11.056)" stroke-width=".3985" stroke-linecap="butt" stroke-miterlimit="10" stroke-linejoin="miter" fill="none" stroke="#000000" d="M 113.38724 0 C 102.52989 9.11052 122.49776 10.85733 113.38724 0 "/>
<path transform="matrix(1,0,0,-1,11.056,11.056)" stroke-width=".3985" stroke-linecap="butt" stroke-miterlimit="10" stroke-linejoin="miter" fill="none" stroke="#000000" d="M 0 0 L 28.3468 0 "/>
<path transform="matrix(1,0,0,-1,11.056,11.056)" stroke-width=".3985" stroke-linecap="butt" stroke-miterlimit="10" stroke-linejoin="miter" fill="none" stroke="#000000" d="M 28.3468 0 L 56.69362 0 "/>
<path transform="matrix(1,0,0,-1,11.056,11.056)" stroke-width=".3985" stroke-linecap="butt" stroke-miterlimit="10" stroke-linejoin="miter" fill="none" stroke="#000000" d="M 56.69362 0 L 76.53629 0 "/>
<path transform="matrix(1,0,0,-1,11.056,11.056)" stroke-width=".3985" stroke-linecap="butt" stroke-miterlimit="10" stroke-linejoin="miter" fill="none" stroke="#000000" d="M 93.54454 0 L 113.38724 0 "/>
</g>
</svg>
