<?xml version="1.0" encoding="UTF-8" standalone="no"?>
<!DOCTYPE svg PUBLIC "-//W3C//DTD SVG 1.1//EN" "http://www.w3.org/Graphics/SVG/1.1/DTD/svg11.dtd">
<svg xmlns="http://www.w3.org/2000/svg" xmlns:xlink="http://www.w3.org/1999/xlink" version="1.1" width="81.509pt" height="104.333pt" viewBox="0 0 81.509 104.333">
<g enable-background="new">
<path transform="matrix(1,0,0,-1,12.026,70.451999)" stroke-width=".3985" stroke-linecap="butt" stroke-miterlimit="10" stroke-linejoin="miter" fill="none" stroke="#000000" d="M 0 0 L 0 0 "/>
<text xml:space="preserve" transform="matrix(1 0 -0 1 0 104.33299)" font-size="9.9626" font-family="CMMI10" font-style="italic"><tspan y="-26.072" x="9.393">a</tspan></text>
<path transform="matrix(1,0,0,-1,12.026,70.451999)" stroke-width=".3985" stroke-linecap="butt" stroke-miterlimit="10" stroke-linejoin="miter" fill="none" stroke="#000000" d="M 28.3468 0 L 28.3468 0 "/>
<text xml:space="preserve" transform="matrix(1 0 -0 1 0 104.333)" font-size="9.9626" font-family="CMMI10" font-style="italic"><tspan y="-23.443" x="38.234">b</tspan></text>
<path transform="matrix(1,0,0,-1,12.026,70.451999)" stroke-width=".3985" stroke-linecap="butt" stroke-miterlimit="10" stroke-linejoin="miter" fill="none" stroke="#000000" d="M 56.69362 0 L 56.69362 0 "/>
<text xml:space="preserve" transform="matrix(1 0 -0 1 -.0000076293949 104.33299)" font-size="9.9626" font-family="CMMI10" font-style="italic"><tspan y="-26.072" x="66.563">c</tspan></text>
<path transform="matrix(1,0,0,-1,12.026,70.451999)" stroke-width=".3985" stroke-linecap="butt" stroke-miterlimit="10" stroke-linejoin="miter" fill="none" stroke="#000000" d="M 0 28.3468 L 0 28.3468 "/>
<text xml:space="preserve" transform="matrix(1 0 -0 1 0 104.33299)" font-size="9.9626" font-family="CMMI10" font-style="italic"><tspan y="-58.768" x="3.321">d</tspan></text>
<path transform="matrix(1,0,0,-1,12.026,70.451999)" stroke-width=".3985" stroke-linecap="butt" stroke-miterlimit="10" stroke-linejoin="miter" fill="none" stroke="#000000" d="M 28.3468 28.3468 L 28.3468 28.3468 "/>
<text xml:space="preserve" transform="matrix(1 0 -0 1 0 104.33299)" font-size="9.9626" font-family="CMMI10" font-style="italic"><tspan y="-54.418" x="38.053">e</tspan></text>
<path transform="matrix(1,0,0,-1,12.026,70.451999)" stroke-width=".3985" stroke-linecap="butt" stroke-miterlimit="10" stroke-linejoin="miter" fill="none" stroke="#000000" d="M 56.69362 28.3468 L 56.69362 28.3468 "/>
<text xml:space="preserve" transform="matrix(1 0 -0 1 0 104.33299)" font-size="9.9626" font-family="CMMI10" font-style="italic"><tspan y="-59.737" x="72.238">f</tspan></text>
<path transform="matrix(1,0,0,-1,12.026,70.451999)" stroke-width=".3985" stroke-linecap="butt" stroke-miterlimit="10" stroke-linejoin="miter" fill="none" stroke="#000000" d="M 0 56.69362 L 0 56.69362 "/>
<text xml:space="preserve" transform="matrix(1 0 -0 1 0 104.33299)" font-size="9.9626" font-family="CMMI10" font-style="italic"><tspan y="-96.031" x="9.471">g</tspan></text>
<path transform="matrix(1,0,0,-1,12.026,70.451999)" stroke-width=".3985" stroke-linecap="butt" stroke-miterlimit="10" stroke-linejoin="miter" fill="none" stroke="#000000" d="M 28.3468 56.69362 L 28.3468 56.69362 "/>
<text xml:space="preserve" transform="matrix(1 0 -0 1 0 104.33299)" font-size="9.9626" font-family="CMMI10" font-style="italic"><tspan y="-94.094" x="37.502">h</tspan></text>
<path transform="matrix(1,0,0,-1,12.026,70.451999)" stroke-width=".3985" stroke-linecap="butt" stroke-miterlimit="10" stroke-linejoin="miter" fill="none" stroke="#000000" d="M 56.69362 56.69362 L 56.69362 56.69362 "/>
<text xml:space="preserve" transform="matrix(1 0 -0 1 0 104.33299)" font-size="9.9626" font-family="CMMI10" font-style="italic"><tspan y="-94.094" x="67.003">i</tspan></text>
<path transform="matrix(1,0,0,-1,12.026,70.451999)" stroke-width=".3985" stroke-linecap="butt" stroke-miterlimit="10" stroke-linejoin="miter" fill="none" stroke="#000000" d="M 0 0 L 0 56.69362 L 56.69362 56.69362 L 56.69362 0 L 0 0 "/>
<path transform="matrix(1,0,0,-1,12.026,70.451999)" stroke-width=".3985" stroke-linecap="butt" stroke-miterlimit="10" stroke-linejoin="miter" fill="none" stroke="#000000" d="M 0 28.3468 L 56.69362 28.3468 "/>
<path transform="matrix(1,0,0,-1,12.026,70.451999)" stroke-width=".3985" stroke-linecap="butt" stroke-miterlimit="10" stroke-linejoin="miter" fill="none" stroke="#000000" d="M 28.3468 56.69362 L 28.3468 28.3468 "/>
<path transform="matrix(1,0,0,-1,12.026,70.451999)" d="M 1.99255 0 C 1.99255 1.10046 1.10046 1.99255 0 1.99255 C -1.10046 1.99255 -1.99255 1.10046 -1.99255 0 C -1.99255 -1.10046 -1.10046 -1.99255 0 -1.99255 C 1.10046 -1.99255 1.99255 -1.10046 1.99255 0 Z M 0 0 "/>
<path transform="matrix(1,0,0,-1,12.026,70.451999)" stroke-width=".3985" stroke-linecap="butt" stroke-miterlimit="10" stroke-linejoin="miter" fill="none" stroke="#000000" d="M 1.99255 0 C 1.99255 1.10046 1.10046 1.99255 0 1.99255 C -1.10046 1.99255 -1.99255 1.10046 -1.99255 0 C -1.99255 -1.10046 -1.10046 -1.99255 0 -1.99255 C 1.10046 -1.99255 1.99255 -1.10046 1.99255 0 Z M 0 0 "/>
<path transform="matrix(1,0,0,-1,12.026,70.451999)" d="M 1.99255 0 C 1.99255 1.10046 1.10046 1.99255 0 1.99255 C -1.10046 1.99255 -1.99255 1.10046 -1.99255 0 C -1.99255 -1.10046 -1.10046 -1.99255 0 -1.99255 C 1.10046 -1.99255 1.99255 -1.10046 1.99255 0 Z M 0 0 "/>
<path transform="matrix(1,0,0,-1,12.026,70.451999)" stroke-width=".3985" stroke-linecap="butt" stroke-miterlimit="10" stroke-linejoin="miter" fill="none" stroke="#000000" d="M 1.99255 0 C 1.99255 1.10046 1.10046 1.99255 0 1.99255 C -1.10046 1.99255 -1.99255 1.10046 -1.99255 0 C -1.99255 -1.10046 -1.10046 -1.99255 0 -1.99255 C 1.10046 -1.99255 1.99255 -1.10046 1.99255 0 Z M 0 0 "/>
<path transform="matrix(1,0,0,-1,12.026,70.451999)" d="M 1.99255 28.3468 C 1.99255 29.44728 1.10046 30.33936 0 30.33936 C -1.10046 30.33936 -1.99255 29.44728 -1.99255 28.3468 C -1.99255 27.24634 -1.10046 26.35425 0 26.35425 C 1.10046 26.35425 1.99255 27.24634 1.99255 28.3468 Z M 0 28.3468 "/>
<path transform="matrix(1,0,0,-1,12.026,70.451999)" stroke-width=".3985" stroke-linecap="butt" stroke-miterlimit="10" stroke-linejoin="miter" fill="none" stroke="#000000" d="M 1.99255 28.3468 C 1.99255 29.44728 1.10046 30.33936 0 30.33936 C -1.10046 30.33936 -1.99255 29.44728 -1.99255 28.3468 C -1.99255 27.24634 -1.10046 26.35425 0 26.35425 C 1.10046 26.35425 1.99255 27.24634 1.99255 28.3468 Z M 0 28.3468 "/>
<path transform="matrix(1,0,0,-1,12.026,70.451999)" d="M 1.99255 56.69362 C 1.99255 57.79408 1.10046 58.68617 0 58.68617 C -1.10046 58.68617 -1.99255 57.79408 -1.99255 56.69362 C -1.99255 55.59314 -1.10046 54.70107 0 54.70107 C 1.10046 54.70107 1.99255 55.59314 1.99255 56.69362 Z M 0 56.69362 "/>
<path transform="matrix(1,0,0,-1,12.026,70.451999)" stroke-width=".3985" stroke-linecap="butt" stroke-miterlimit="10" stroke-linejoin="miter" fill="none" stroke="#000000" d="M 1.99255 56.69362 C 1.99255 57.79408 1.10046 58.68617 0 58.68617 C -1.10046 58.68617 -1.99255 57.79408 -1.99255 56.69362 C -1.99255 55.59314 -1.10046 54.70107 0 54.70107 C 1.10046 54.70107 1.99255 55.59314 1.99255 56.69362 Z M 0 56.69362 "/>
<path transform="matrix(1,0,0,-1,12.026,70.451999)" d="M 30.33936 0 C 30.33936 1.10046 29.44728 1.99255 28.3468 1.99255 C 27.24634 1.99255 26.35425 1.10046 26.35425 0 C 26.35425 -1.10046 27.24634 -1.99255 28.3468 -1.99255 C 29.44728 -1.99255 30.33936 -1.10046 30.33936 0 Z M 28.3468 0 "/>
<path transform="matrix(1,0,0,-1,12.026,70.451999)" stroke-width=".3985" stroke-linecap="butt" stroke-miterlimit="10" stroke-linejoin="miter" fill="none" stroke="#000000" d="M 30.33936 0 C 30.33936 1.10046 29.44728 1.99255 28.3468 1.99255 C 27.24634 1.99255 26.35425 1.10046 26.35425 0 C 26.35425 -1.10046 27.24634 -1.99255 28.3468 -1.99255 C 29.44728 -1.99255 30.33936 -1.10046 30.33936 0 Z M 28.3468 0 "/>
<path transform="matrix(1,0,0,-1,12.026,70.451999)" d="M 30.33936 28.3468 C 30.33936 29.44728 29.44728 30.33936 28.3468 30.33936 C 27.24634 30.33936 26.35425 29.44728 26.35425 28.3468 C 26.35425 27.24634 27.24634 26.35425 28.3468 26.35425 C 29.44728 26.35425 30.33936 27.24634 30.33936 28.3468 Z M 28.3468 28.3468 "/>
<path transform="matrix(1,0,0,-1,12.026,70.451999)" stroke-width=".3985" stroke-linecap="butt" stroke-miterlimit="10" stroke-linejoin="miter" fill="none" stroke="#000000" d="M 30.33936 28.3468 C 30.33936 29.44728 29.44728 30.33936 28.3468 30.33936 C 27.24634 30.33936 26.35425 29.44728 26.35425 28.3468 C 26.35425 27.24634 27.24634 26.35425 28.3468 26.35425 C 29.44728 26.35425 30.33936 27.24634 30.33936 28.3468 Z M 28.3468 28.3468 "/>
<path transform="matrix(1,0,0,-1,12.026,70.451999)" d="M 30.33936 56.69362 C 30.33936 57.79408 29.44728 58.68617 28.3468 58.68617 C 27.24634 58.68617 26.35425 57.79408 26.35425 56.69362 C 26.35425 55.59314 27.24634 54.70107 28.3468 54.70107 C 29.44728 54.70107 30.33936 55.59314 30.33936 56.69362 Z M 28.3468 56.69362 "/>
<path transform="matrix(1,0,0,-1,12.026,70.451999)" stroke-width=".3985" stroke-linecap="butt" stroke-miterlimit="10" stroke-linejoin="miter" fill="none" stroke="#000000" d="M 30.33936 56.69362 C 30.33936 57.79408 29.44728 58.68617 28.3468 58.68617 C 27.24634 58.68617 26.35425 57.79408 26.35425 56.69362 C 26.35425 55.59314 27.24634 54.70107 28.3468 54.70107 C 29.44728 54.70107 30.33936 55.59314 30.33936 56.69362 Z M 28.3468 56.69362 "/>
<path transform="matrix(1,0,0,-1,12.026,70.451999)" d="M 58.68617 0 C 58.68617 1.10046 57.79408 1.99255 56.69362 1.99255 C 55.59314 1.99255 54.70107 1.10046 54.70107 0 C 54.70107 -1.10046 55.59314 -1.99255 56.69362 -1.99255 C 57.79408 -1.99255 58.68617 -1.10046 58.68617 0 Z M 56.69362 0 "/>
<path transform="matrix(1,0,0,-1,12.026,70.451999)" stroke-width=".3985" stroke-linecap="butt" stroke-miterlimit="10" stroke-linejoin="miter" fill="none" stroke="#000000" d="M 58.68617 0 C 58.68617 1.10046 57.79408 1.99255 56.69362 1.99255 C 55.59314 1.99255 54.70107 1.10046 54.70107 0 C 54.70107 -1.10046 55.59314 -1.99255 56.69362 -1.99255 C 57.79408 -1.99255 58.68617 -1.10046 58.68617 0 Z M 56.69362 0 "/>
<path transform="matrix(1,0,0,-1,12.026,70.451999)" d="M 58.68617 28.3468 C 58.68617 29.44728 57.79408 30.33936 56.69362 30.33936 C 55.59314 30.33936 54.70107 29.44728 54.70107 28.3468 C 54.70107 27.24634 55.59314 26.35425 56.69362 26.35425 C 57.79408 26.35425 58.68617 27.24634 58.68617 28.3468 Z M 56.69362 28.3468 "/>
<path transform="matrix(1,0,0,-1,12.026,70.451999)" stroke-width=".3985" stroke-linecap="butt" stroke-miterlimit="10" stroke-linejoin="miter" fill="none" stroke="#000000" d="M 58.68617 28.3468 C 58.68617 29.44728 57.79408 30.33936 56.69362 30.33936 C 55.59314 30.33936 54.70107 29.44728 54.70107 28.3468 C 54.70107 27.24634 55.59314 26.35425 56.69362 26.35425 C 57.79408 26.35425 58.68617 27.24634 58.68617 28.3468 Z M 56.69362 28.3468 "/>
<path transform="matrix(1,0,0,-1,12.026,70.451999)" d="M 58.68617 56.69362 C 58.68617 57.79408 57.79408 58.68617 56.69362 58.68617 C 55.59314 58.68617 54.70107 57.79408 54.70107 56.69362 C 54.70107 55.59314 55.59314 54.70107 56.69362 54.70107 C 57.79408 54.70107 58.68617 55.59314 58.68617 56.69362 Z M 56.69362 56.69362 "/>
<path transform="matrix(1,0,0,-1,12.026,70.451999)" stroke-width=".3985" stroke-linecap="butt" stroke-miterlimit="10" stroke-linejoin="miter" fill="none" stroke="#000000" d="M 58.68617 56.69362 C 58.68617 57.79408 57.79408 58.68617 56.69362 58.68617 C 55.59314 58.68617 54.70107 57.79408 54.70107 56.69362 C 54.70107 55.59314 55.59314 54.70107 56.69362 54.70107 C 57.79408 54.70107 58.68617 55.59314 58.68617 56.69362 Z M 56.69362 56.69362 "/>
<path transform="matrix(1,0,0,-1,12.026,70.451999)" stroke-width="1.59404" stroke-linecap="butt" stroke-dasharray="2.98883,2.98883" stroke-miterlimit="10" stroke-linejoin="miter" fill="none" stroke="#929292" d="M 0 24.82698 L 0 3.5198 M 3.5198 0 L 24.82698 0 M 31.86662 0 L 53.1738 0 M 56.69362 3.5198 L 56.69362 23.23293 "/>
<path transform="matrix(0,-1,-1,-0,68.71962,46.422048)" stroke-width="1.59404" stroke-linecap="round" stroke-linejoin="round" fill="none" stroke="#929292" d="M -3.5069 4.55072 C -2.8662 1.82025 -1.43846 .5309 0 0 C -1.43846 -.5309 -2.8662 -1.82025 -3.5069 -4.55072 "/>
<path transform="matrix(1,0,0,-1,12.026,70.451999)" stroke-width=".3985" stroke-linecap="butt" stroke-miterlimit="10" stroke-linejoin="miter" fill="none" stroke="#000000" d="M 28.3468 -28.3468 L 28.3468 -28.3468 "/>
<text xml:space="preserve" transform="matrix(1 0 -0 1 0 104.33299)" font-size="4.9813" font-family="CMMI5" font-style="italic"><tspan y="-4.289" x="31.408 35.094163 38.949689 42.10285 45.335718">dabcf</tspan></text>
</g>
</svg>
