<?xml version="1.0" encoding="UTF-8" standalone="no"?>
<!DOCTYPE svg PUBLIC "-//W3C//DTD SVG 1.1//EN" "http://www.w3.org/Graphics/SVG/1.1/DTD/svg11.dtd">
<svg xmlns="http://www.w3.org/2000/svg" xmlns:xlink="http://www.w3.org/1999/xlink" version="1.1" width="110.612pt" height="133.865pt" viewBox="0 0 110.612 133.865">
<g enable-background="new">
<path transform="matrix(1,0,0,-1,12.787,97.826007)" stroke-width=".3985" stroke-linecap="butt" stroke-miterlimit="10" stroke-linejoin="miter" fill="none" stroke="#000000" d="M 12.58748 0 C 12.58748 6.95195 6.95195 12.58748 0 12.58748 C -6.95195 12.58748 -12.58748 6.95195 -12.58748 0 C -12.58748 -6.95195 -6.95195 -12.58748 0 -12.58748 C 6.95195 -12.58748 12.58748 -6.95195 12.58748 0 Z M 0 0 "/>
<text xml:space="preserve" transform="matrix(1 0 -0 1 -.00000047683718 133.865)" font-size="4.9813" font-family="CMR5"><tspan y="-34.794" x="4.946 7.645865">(0</tspan></text>
<text xml:space="preserve" transform="matrix(1 0 -0 1 -.00000047683718 133.865)" font-size="4.9813" font-family="CMMI5" font-style="italic"><tspan y="-34.794" x="11.034">,</tspan></text>
<text xml:space="preserve" transform="matrix(1 0 -0 1 -.00000047683718 133.865)" font-size="4.9813" font-family="CMR5"><tspan y="-34.794" x="14.5390009 17.931267">0)</tspan></text>
<path transform="matrix(1,0,0,-1,12.787,97.826007)" stroke-width=".3985" stroke-linecap="butt" stroke-miterlimit="10" stroke-linejoin="miter" fill="none" stroke="#000000" d="M 97.6279 0 C 97.6279 6.95195 91.99237 12.58748 85.04042 12.58748 C 78.08847 12.58748 72.45294 6.95195 72.45294 0 C 72.45294 -6.95195 78.08847 -12.58748 85.04042 -12.58748 C 91.99237 -12.58748 97.6279 -6.95195 97.6279 0 Z M 85.04042 0 "/>
<text xml:space="preserve" transform="matrix(1 0 -0 1 0 133.865)" font-size="4.9813" font-family="CMR5"><tspan y="-34.794" x="89.985 92.68487">(1</tspan></text>
<text xml:space="preserve" transform="matrix(1 0 -0 1 0 133.865)" font-size="4.9813" font-family="CMMI5" font-style="italic"><tspan y="-34.794" x="96.073">,</tspan></text>
<text xml:space="preserve" transform="matrix(1 0 -0 1 0 133.865)" font-size="4.9813" font-family="CMR5"><tspan y="-34.794" x="99.578998 102.97126">0)</tspan></text>
<path transform="matrix(1,0,0,-1,12.787,97.826007)" stroke-width=".3985" stroke-linecap="butt" stroke-miterlimit="10" stroke-linejoin="miter" fill="none" stroke="#000000" d="M 97.6279 85.04042 C 97.6279 91.99237 91.99237 97.6279 85.04042 97.6279 C 78.08847 97.6279 72.45294 91.99237 72.45294 85.04042 C 72.45294 78.08847 78.08847 72.45294 85.04042 72.45294 C 91.99237 72.45294 97.6279 78.08847 97.6279 85.04042 Z M 85.04042 85.04042 "/>
<text xml:space="preserve" transform="matrix(1 0 -0 1 0 133.865)" font-size="4.9813" font-family="CMR5"><tspan y="-119.833" x="89.985 92.68487">(1</tspan></text>
<text xml:space="preserve" transform="matrix(1 0 -0 1 0 133.865)" font-size="4.9813" font-family="CMMI5" font-style="italic"><tspan y="-119.833" x="96.073">,</tspan></text>
<text xml:space="preserve" transform="matrix(1 0 -0 1 0 133.865)" font-size="4.9813" font-family="CMR5"><tspan y="-119.833" x="99.578998 102.97126">1)</tspan></text>
<path transform="matrix(1,0,0,-1,12.787,97.826007)" stroke-width=".3985" stroke-linecap="butt" stroke-miterlimit="10" stroke-linejoin="miter" fill="none" stroke="#000000" d="M 12.58748 85.04042 C 12.58748 91.99237 6.95195 97.6279 0 97.6279 C -6.95195 97.6279 -12.58748 91.99237 -12.58748 85.04042 C -12.58748 78.08847 -6.95195 72.45294 0 72.45294 C 6.95195 72.45294 12.58748 78.08847 12.58748 85.04042 Z M 0 85.04042 "/>
<text xml:space="preserve" transform="matrix(1 0 -0 1 -.00000047683718 133.865)" font-size="4.9813" font-family="CMR5"><tspan y="-119.833" x="4.946 7.645865">(0</tspan></text>
<text xml:space="preserve" transform="matrix(1 0 -0 1 -.00000047683718 133.865)" font-size="4.9813" font-family="CMMI5" font-style="italic"><tspan y="-119.833" x="11.034">,</tspan></text>
<text xml:space="preserve" transform="matrix(1 0 -0 1 -.00000047683718 133.865)" font-size="4.9813" font-family="CMR5"><tspan y="-119.833" x="14.5390009 17.931267">1)</tspan></text>
<path transform="matrix(1,0,0,-1,12.787,97.826007)" stroke-width=".3985" stroke-linecap="butt" stroke-miterlimit="10" stroke-linejoin="miter" fill="none" stroke="#000000" d="M 0 12.78673 L 0 72.2537 M 12.78673 85.04042 L 72.2537 85.04042 M 85.04042 72.2537 L 85.04042 12.78673 M 72.2537 0 L 12.78673 0 "/>
<text xml:space="preserve" transform="matrix(1 0 -0 1 0 133.865)" font-size="9.9626" font-family="CMMI10" font-style="italic"><tspan y="-5.258" x="49.134">Q</tspan></text>
<text xml:space="preserve" transform="matrix(1 0 -0 1 0 133.865)" font-size="6.9738" font-family="CMR7"><tspan y="-3.763" x="57.01">2</tspan></text>
</g>
</svg>
