<?xml version="1.0" encoding="UTF-8" standalone="no"?>
<!DOCTYPE svg PUBLIC "-//W3C//DTD SVG 1.1//EN" "http://www.w3.org/Graphics/SVG/1.1/DTD/svg11.dtd">
<svg xmlns="http://www.w3.org/2000/svg" xmlns:xlink="http://www.w3.org/1999/xlink" version="1.1" width="199.037pt" height="167.506pt" viewBox="0 0 199.037 167.506">
<g enable-background="new">
<path transform="matrix(1,0,0,-1,99.518,154.619)" stroke-width=".3985" stroke-linecap="butt" stroke-miterlimit="10" stroke-linejoin="miter" fill="none" stroke="#0000ff" d="M 12.68768 0 C 12.68768 7.0073 7.0073 12.68768 0 12.68768 C -7.0073 12.68768 -12.68768 7.0073 -12.68768 0 C -12.68768 -7.0073 -7.0073 -12.68768 0 -12.68768 C 7.0073 -12.68768 12.68768 -7.0073 12.68768 0 Z M 0 0 "/>
<text fill="#0000ff" xml:space="preserve" transform="matrix(1 0 -0 1 0 167.50601)" font-size="4.9813" font-family="CMR5"><tspan y="-11.641" x="91.539">5</tspan></text>
<text fill="#0000ff" xml:space="preserve" transform="matrix(1 0 -0 1 0 167.50601)" font-size="4.9813" font-family="CMSY5" font-style="italic"><tspan y="-11.641" x="94.929">|</tspan></text>
<text fill="#0000ff" xml:space="preserve" transform="matrix(1 0 -0 1 0 167.50601)" font-size="4.9813" font-family="CMR5"><tspan y="-11.641" x="97.212">1</tspan></text>
<text fill="#0000ff" xml:space="preserve" transform="matrix(1 0 -0 1 0 167.50601)" font-size="4.9813" font-family="CMMI5" font-style="italic"><tspan y="-11.641" x="100.602">,</tspan></text>
<text fill="#0000ff" xml:space="preserve" transform="matrix(1 0 -0 1 0 167.50601)" font-size="4.9813" font-family="CMR5"><tspan y="-11.641" x="104.107997">3</tspan></text>
<path transform="matrix(1,0,0,-1,99.518,154.619)" stroke-width=".3985" stroke-linecap="butt" stroke-miterlimit="10" stroke-linejoin="miter" fill="none" stroke="#0000ff" d="M -72.35272 28.3468 C -72.35272 35.35411 -78.03311 41.0345 -85.04042 41.0345 C -92.04773 41.0345 -97.72812 35.35411 -97.72812 28.3468 C -97.72812 21.3395 -92.04773 15.6591 -85.04042 15.6591 C -78.03311 15.6591 -72.35272 21.3395 -72.35272 28.3468 Z M -85.04042 28.3468 "/>
<text fill="#0000ff" xml:space="preserve" transform="matrix(1 0 -0 1 0 167.50601)" font-size="4.9813" font-family="CMR5"><tspan y="-39.988" x="6.5">3</tspan></text>
<text fill="#0000ff" xml:space="preserve" transform="matrix(1 0 -0 1 0 167.50601)" font-size="4.9813" font-family="CMMI5" font-style="italic"><tspan y="-39.988" x="9.89">,</tspan></text>
<text fill="#0000ff" xml:space="preserve" transform="matrix(1 0 -0 1 0 167.50601)" font-size="4.9813" font-family="CMR5"><tspan y="-39.988" x="13.395">5</tspan></text>
<text fill="#0000ff" xml:space="preserve" transform="matrix(1 0 -0 1 0 167.50601)" font-size="4.9813" font-family="CMSY5" font-style="italic"><tspan y="-39.988" x="16.785">|</tspan></text>
<text fill="#0000ff" xml:space="preserve" transform="matrix(1 0 -0 1 0 167.50601)" font-size="4.9813" font-family="CMR5"><tspan y="-39.988" x="19.068">1</tspan></text>
<path transform="matrix(1,0,0,-1,99.518,154.619)" stroke-width=".3985" stroke-linecap="butt" stroke-miterlimit="10" stroke-linejoin="miter" fill="none" stroke="#0000ff" d="M 99.32031 28.3468 C 99.32031 36.23346 92.9271 42.6267 85.04042 42.6267 C 77.15376 42.6267 70.76053 36.23346 70.76053 28.3468 C 70.76053 20.46014 77.15376 14.06691 85.04042 14.06691 C 92.9271 14.06691 99.32031 20.46014 99.32031 28.3468 Z M 85.04042 28.3468 "/>
<text fill="#0000ff" xml:space="preserve" transform="matrix(1 0 -0 1 0 167.50601)" font-size="4.9813" font-family="CMSY5" font-style="italic"><tspan y="-39.988" x="174.825">|</tspan></text>
<text fill="#0000ff" xml:space="preserve" transform="matrix(1 0 -0 1 0 167.50601)" font-size="4.9813" font-family="CMR5"><tspan y="-39.988" x="177.109">1</tspan></text>
<text fill="#0000ff" xml:space="preserve" transform="matrix(1 0 -0 1 0 167.50601)" font-size="4.9813" font-family="CMMI5" font-style="italic"><tspan y="-39.988" x="180.499">,</tspan></text>
<text fill="#0000ff" xml:space="preserve" transform="matrix(1 0 -0 1 0 167.50601)" font-size="4.9813" font-family="CMR5"><tspan y="-39.988" x="184.004">3</tspan></text>
<text fill="#0000ff" xml:space="preserve" transform="matrix(1 0 -0 1 0 167.50601)" font-size="4.9813" font-family="CMMI5" font-style="italic"><tspan y="-39.988" x="187.394">,</tspan></text>
<text fill="#0000ff" xml:space="preserve" transform="matrix(1 0 -0 1 0 167.50601)" font-size="4.9813" font-family="CMR5"><tspan y="-39.988" x="190.9">5</tspan></text>
<path transform="matrix(1,0,0,-1,99.518,154.619)" stroke-width=".3985" stroke-linecap="butt" stroke-miterlimit="10" stroke-linejoin="miter" fill="none" stroke="#0000ff" d="M 12.68768 56.69362 C 12.68768 63.70091 7.0073 69.3813 0 69.3813 C -7.0073 69.3813 -12.68768 63.70091 -12.68768 56.69362 C -12.68768 49.68631 -7.0073 44.00592 0 44.00592 C 7.0073 44.00592 12.68768 49.68631 12.68768 56.69362 Z M 0 56.69362 "/>
<text fill="#0000ff" xml:space="preserve" transform="matrix(1 0 -0 1 0 167.50601)" font-size="4.9813" font-family="CMR5"><tspan y="-68.334" x="91.539">1</tspan></text>
<text fill="#0000ff" xml:space="preserve" transform="matrix(1 0 -0 1 0 167.50601)" font-size="4.9813" font-family="CMMI5" font-style="italic"><tspan y="-68.334" x="94.929">,</tspan></text>
<text fill="#0000ff" xml:space="preserve" transform="matrix(1 0 -0 1 0 167.50601)" font-size="4.9813" font-family="CMR5"><tspan y="-68.334" x="98.434">5</tspan></text>
<text fill="#0000ff" xml:space="preserve" transform="matrix(1 0 -0 1 0 167.50601)" font-size="4.9813" font-family="CMSY5" font-style="italic"><tspan y="-68.334" x="101.824">|</tspan></text>
<text fill="#0000ff" xml:space="preserve" transform="matrix(1 0 -0 1 0 167.50601)" font-size="4.9813" font-family="CMR5"><tspan y="-68.334" x="104.107997">3</tspan></text>
<path transform="matrix(1,0,0,-1,99.518,154.619)" stroke-width=".3985" stroke-linecap="butt" stroke-miterlimit="10" stroke-linejoin="miter" fill="none" stroke="#0000ff" d="M 12.68768 85.04042 C 12.68768 92.04773 7.0073 97.72812 0 97.72812 C -7.0073 97.72812 -12.68768 92.04773 -12.68768 85.04042 C -12.68768 78.03311 -7.0073 72.35272 0 72.35272 C 7.0073 72.35272 12.68768 78.03311 12.68768 85.04042 Z M 0 85.04042 "/>
<text fill="#0000ff" xml:space="preserve" transform="matrix(1 0 -0 1 0 167.50601)" font-size="4.9813" font-family="CMR5"><tspan y="-96.681" x="91.539">3</tspan></text>
<text fill="#0000ff" xml:space="preserve" transform="matrix(1 0 -0 1 0 167.50601)" font-size="4.9813" font-family="CMSY5" font-style="italic"><tspan y="-96.681" x="94.929">|</tspan></text>
<text fill="#0000ff" xml:space="preserve" transform="matrix(1 0 -0 1 0 167.50601)" font-size="4.9813" font-family="CMR5"><tspan y="-96.681" x="97.212">1</tspan></text>
<text fill="#0000ff" xml:space="preserve" transform="matrix(1 0 -0 1 0 167.50601)" font-size="4.9813" font-family="CMMI5" font-style="italic"><tspan y="-96.681" x="100.602">,</tspan></text>
<text fill="#0000ff" xml:space="preserve" transform="matrix(1 0 -0 1 0 167.50601)" font-size="4.9813" font-family="CMR5"><tspan y="-96.681" x="104.107997">5</tspan></text>
<path transform="matrix(1,0,0,-1,99.518,154.619)" stroke-width=".3985" stroke-linecap="butt" stroke-miterlimit="10" stroke-linejoin="miter" fill="none" stroke="#0000ff" d="M -70.76053 113.38724 C -70.76053 121.2739 -77.15376 127.66711 -85.04042 127.66711 C -92.9271 127.66711 -99.32031 121.2739 -99.32031 113.38724 C -99.32031 105.50056 -92.9271 99.10735 -85.04042 99.10735 C -77.15376 99.10735 -70.76053 105.50056 -70.76053 113.38724 Z M -85.04042 113.38724 "/>
<text fill="#0000ff" xml:space="preserve" transform="matrix(1 0 -0 1 -.000006198883 167.50601)" font-size="4.9813" font-family="CMR5"><tspan y="-125.027" x="4.747">1</tspan></text>
<text fill="#0000ff" xml:space="preserve" transform="matrix(1 0 -0 1 -.000006198883 167.50601)" font-size="4.9813" font-family="CMMI5" font-style="italic"><tspan y="-125.027" x="8.137">,</tspan></text>
<text fill="#0000ff" xml:space="preserve" transform="matrix(1 0 -0 1 -.000006198883 167.50601)" font-size="4.9813" font-family="CMR5"><tspan y="-125.027" x="11.642">3</tspan></text>
<text fill="#0000ff" xml:space="preserve" transform="matrix(1 0 -0 1 -.000006198883 167.50601)" font-size="4.9813" font-family="CMMI5" font-style="italic"><tspan y="-125.027" x="15.032001">,</tspan></text>
<text fill="#0000ff" xml:space="preserve" transform="matrix(1 0 -0 1 -.000006198883 167.50601)" font-size="4.9813" font-family="CMR5"><tspan y="-125.027" x="18.538">5</tspan></text>
<text fill="#0000ff" xml:space="preserve" transform="matrix(1 0 -0 1 -.000006198883 167.50601)" font-size="4.9813" font-family="CMSY5" font-style="italic"><tspan y="-125.027" x="21.928">|</tspan></text>
<path transform="matrix(1,0,0,-1,99.518,154.619)" stroke-width=".3985" stroke-linecap="butt" stroke-miterlimit="10" stroke-linejoin="miter" fill="none" stroke="#0000ff" d="M 97.72812 113.38724 C 97.72812 120.39453 92.04773 126.07492 85.04042 126.07492 C 78.03311 126.07492 72.35272 120.39453 72.35272 113.38724 C 72.35272 106.37993 78.03311 100.69954 85.04042 100.69954 C 92.04773 100.69954 97.72812 106.37993 97.72812 113.38724 Z M 85.04042 113.38724 "/>
<text fill="#0000ff" xml:space="preserve" transform="matrix(1 0 -0 1 0 167.50601)" font-size="4.9813" font-family="CMR5"><tspan y="-125.027" x="176.578">1</tspan></text>
<text fill="#0000ff" xml:space="preserve" transform="matrix(1 0 -0 1 0 167.50601)" font-size="4.9813" font-family="CMSY5" font-style="italic"><tspan y="-125.027" x="179.968">|</tspan></text>
<text fill="#0000ff" xml:space="preserve" transform="matrix(1 0 -0 1 0 167.50601)" font-size="4.9813" font-family="CMR5"><tspan y="-125.027" x="182.251">3</tspan></text>
<text fill="#0000ff" xml:space="preserve" transform="matrix(1 0 -0 1 0 167.50601)" font-size="4.9813" font-family="CMMI5" font-style="italic"><tspan y="-125.027" x="185.64202">,</tspan></text>
<text fill="#0000ff" xml:space="preserve" transform="matrix(1 0 -0 1 0 167.50601)" font-size="4.9813" font-family="CMR5"><tspan y="-125.027" x="189.14702">5</tspan></text>
<path transform="matrix(1,0,0,-1,99.518,154.619)" stroke-width=".3985" stroke-linecap="butt" stroke-miterlimit="10" stroke-linejoin="miter" fill="none" stroke="#0000ff" d="M 12.68768 141.73404 C 12.68768 148.74135 7.0073 154.42174 0 154.42174 C -7.0073 154.42174 -12.68768 148.74135 -12.68768 141.73404 C -12.68768 134.72673 -7.0073 129.04636 0 129.04636 C 7.0073 129.04636 12.68768 134.72673 12.68768 141.73404 Z M 0 141.73404 "/>
<text fill="#0000ff" xml:space="preserve" transform="matrix(1 0 -0 1 0 167.506)" font-size="4.9813" font-family="CMR5"><tspan y="-153.374" x="91.539">1</tspan></text>
<text fill="#0000ff" xml:space="preserve" transform="matrix(1 0 -0 1 0 167.506)" font-size="4.9813" font-family="CMMI5" font-style="italic"><tspan y="-153.374" x="94.929">,</tspan></text>
<text fill="#0000ff" xml:space="preserve" transform="matrix(1 0 -0 1 0 167.506)" font-size="4.9813" font-family="CMR5"><tspan y="-153.374" x="98.434">3</tspan></text>
<text fill="#0000ff" xml:space="preserve" transform="matrix(1 0 -0 1 0 167.506)" font-size="4.9813" font-family="CMSY5" font-style="italic"><tspan y="-153.374" x="101.824">|</tspan></text>
<text fill="#0000ff" xml:space="preserve" transform="matrix(1 0 -0 1 0 167.506)" font-size="4.9813" font-family="CMR5"><tspan y="-153.374" x="104.107997">5</tspan></text>
<path transform="matrix(1,0,0,-1,99.518,154.619)" stroke-width=".3985" stroke-linecap="butt" stroke-miterlimit="10" stroke-linejoin="miter" fill="none" stroke="#000000" d="M -12.22504 4.07494 L -72.81537 24.27185 M -74.31828 35.49481 L -10.72214 77.89241 M 10.72214 77.89241 L 72.99356 36.37798 M 71.30495 23.76839 L 12.22504 4.07494 "/>
<path transform="matrix(1,0,0,-1,99.518,154.619)" stroke-width=".3985" stroke-linecap="butt" stroke-miterlimit="10" stroke-linejoin="miter" fill="none" stroke="#000000" d="M -10.72214 63.84163 L -72.99356 105.35606 M -71.30495 117.96564 L -12.22504 137.65909 M 12.22504 137.65909 L 72.81537 117.46219 M 74.31828 106.23921 L 10.72214 63.84163 "/>
<path transform="matrix(1,0,0,-1,99.518,154.619)" stroke-width=".3985" stroke-linecap="butt" stroke-miterlimit="10" stroke-linejoin="miter" fill="none" stroke="#000000" d="M -85.04042 41.23375 L -85.04042 98.9081 "/>
<path transform="matrix(1,0,0,-1,99.518,154.619)" stroke-width=".3985" stroke-linecap="butt" stroke-miterlimit="10" stroke-linejoin="miter" fill="none" stroke="#000000" d="M 85.04042 42.82594 L 85.04042 100.50029 "/>
<path transform="matrix(1,0,0,-1,99.518,154.619)" stroke-width=".3985" stroke-linecap="butt" stroke-miterlimit="10" stroke-linejoin="miter" fill="none" stroke="#000000" d=""/>
<path transform="matrix(1,0,0,-1,99.518,154.619)" stroke-width=".3985" stroke-linecap="butt" stroke-miterlimit="10" stroke-linejoin="miter" fill="none" stroke="#000000" d="M -6.44325 11.16023 C -18.67271 32.34233 -18.67271 52.69807 -6.44325 73.88017 "/>
<path transform="matrix(1,0,0,-1,99.518,154.619)" stroke-width=".3985" stroke-linecap="butt" stroke-miterlimit="10" stroke-linejoin="miter" fill="none" stroke="#000000" d=""/>
<path transform="matrix(1,0,0,-1,99.518,154.619)" stroke-width=".3985" stroke-linecap="butt" stroke-miterlimit="10" stroke-linejoin="miter" fill="none" stroke="#000000" d="M 6.44325 67.85385 C 18.67271 89.03596 18.67271 109.3917 6.44325 130.57379 "/>
</g>
</svg>
