<?xml version="1.0" encoding="UTF-8" standalone="no"?>
<!DOCTYPE svg PUBLIC "-//W3C//DTD SVG 1.1//EN" "http://www.w3.org/Graphics/SVG/1.1/DTD/svg11.dtd">
<svg xmlns="http://www.w3.org/2000/svg" xmlns:xlink="http://www.w3.org/1999/xlink" version="1.1" width="204.801pt" height="107.037pt" viewBox="0 0 204.801 107.037">
<g enable-background="new">
<path transform="matrix(1,0,0,-1,31.534,42.872)" stroke-width=".3985" stroke-linecap="butt" stroke-miterlimit="10" stroke-linejoin="miter" fill="none" stroke="#000000" d="M 62.36288 0 L 87.47676 0 "/>
<path transform="matrix(1,0,0,-1,119.21004,42.872)" stroke-width=".3985" stroke-linecap="round" stroke-linejoin="round" fill="none" stroke="#000000" d="M -2.07224 2.39104 C -1.69365 .95639 -.84999 .27895 0 0 C -.84999 -.27895 -1.69365 -.95639 -2.07224 -2.39104 "/>
<text xml:space="preserve" transform="matrix(1 0 -0 1 -.0000076293949 107.037)" font-size="9.9626" font-family="CMMI10" font-style="italic"><tspan y="-72.456" x="103.678">f</tspan></text>
<path transform="matrix(1,0,0,-1,31.534,42.872)" stroke-width=".3985" stroke-linecap="butt" stroke-miterlimit="10" stroke-linejoin="miter" fill="none" stroke="#000000" d="M 141.73404 28.3468 L 141.73404 -28.3468 "/>
<path transform="matrix(1,0,0,-1,31.534,42.872)" stroke-width=".3985" stroke-linecap="butt" stroke-miterlimit="10" stroke-linejoin="miter" fill="none" stroke="#000000" d="M 113.38724 0 L 170.08086 0 "/>
<text xml:space="preserve" transform="matrix(1 0 -0 1 0 107.036)" font-size="9.9626" font-family="CMMI10" font-style="italic"><tspan y="-4.815" x="26.245">S</tspan></text>
<text xml:space="preserve" transform="matrix(1 0 -0 1 0 107.036)" font-size="6.9738" font-family="CMR7"><tspan y="-3.321" x="32.354">3</tspan></text>
<path transform="matrix(1,0,0,-1,31.534,42.872)" d="M 144.72287 0 C 144.72287 1.6507 143.38475 2.98883 141.73404 2.98883 C 140.08333 2.98883 138.74521 1.6507 138.74521 0 C 138.74521 -1.6507 140.08333 -2.98883 141.73404 -2.98883 C 143.38475 -2.98883 144.72287 -1.6507 144.72287 0 Z M 141.73404 0 " fill="#008080"/>
<path transform="matrix(1,0,0,-1,31.534,42.872)" stroke-width=".3985" stroke-linecap="butt" stroke-miterlimit="10" stroke-linejoin="miter" fill="none" stroke="#008080" d="M 144.72287 0 C 144.72287 1.6507 143.38475 2.98883 141.73404 2.98883 C 140.08333 2.98883 138.74521 1.6507 138.74521 0 C 138.74521 -1.6507 140.08333 -2.98883 141.73404 -2.98883 C 143.38475 -2.98883 144.72287 -1.6507 144.72287 0 Z M 141.73404 0 "/>
<path transform="matrix(1,0,0,-1,31.534,42.872)" d="M 144.72287 28.3468 C 144.72287 29.99751 143.38475 31.33563 141.73404 31.33563 C 140.08333 31.33563 138.74521 29.99751 138.74521 28.3468 C 138.74521 26.69609 140.08333 25.35797 141.73404 25.35797 C 143.38475 25.35797 144.72287 26.69609 144.72287 28.3468 Z M 141.73404 28.3468 " fill="#ff8000"/>
<path transform="matrix(1,0,0,-1,31.534,42.872)" stroke-width=".3985" stroke-linecap="butt" stroke-miterlimit="10" stroke-linejoin="miter" fill="none" stroke="#ff8000" d="M 144.72287 28.3468 C 144.72287 29.99751 143.38475 31.33563 141.73404 31.33563 C 140.08333 31.33563 138.74521 29.99751 138.74521 28.3468 C 138.74521 26.69609 140.08333 25.35797 141.73404 25.35797 C 143.38475 25.35797 144.72287 26.69609 144.72287 28.3468 Z M 141.73404 28.3468 "/>
<path transform="matrix(1,0,0,-1,31.534,42.872)" d="M 144.72287 -28.3468 C 144.72287 -26.69609 143.38475 -25.35797 141.73404 -25.35797 C 140.08333 -25.35797 138.74521 -26.69609 138.74521 -28.3468 C 138.74521 -29.99751 140.08333 -31.33563 141.73404 -31.33563 C 143.38475 -31.33563 144.72287 -29.99751 144.72287 -28.3468 Z M 141.73404 -28.3468 " fill="#ff8000"/>
<path transform="matrix(1,0,0,-1,31.534,42.872)" stroke-width=".3985" stroke-linecap="butt" stroke-miterlimit="10" stroke-linejoin="miter" fill="none" stroke="#ff8000" d="M 144.72287 -28.3468 C 144.72287 -26.69609 143.38475 -25.35797 141.73404 -25.35797 C 140.08333 -25.35797 138.74521 -26.69609 138.74521 -28.3468 C 138.74521 -29.99751 140.08333 -31.33563 141.73404 -31.33563 C 143.38475 -31.33563 144.72287 -29.99751 144.72287 -28.3468 Z M 141.73404 -28.3468 "/>
<path transform="matrix(1,0,0,-1,31.534,42.872)" d="M 173.06969 0 C 173.06969 1.6507 171.73155 2.98883 170.08086 2.98883 C 168.43015 2.98883 167.09203 1.6507 167.09203 0 C 167.09203 -1.6507 168.43015 -2.98883 170.08086 -2.98883 C 171.73155 -2.98883 173.06969 -1.6507 173.06969 0 Z M 170.08086 0 " fill="#ff8000"/>
<path transform="matrix(1,0,0,-1,31.534,42.872)" stroke-width=".3985" stroke-linecap="butt" stroke-miterlimit="10" stroke-linejoin="miter" fill="none" stroke="#ff8000" d="M 173.06969 0 C 173.06969 1.6507 171.73155 2.98883 170.08086 2.98883 C 168.43015 2.98883 167.09203 1.6507 167.09203 0 C 167.09203 -1.6507 168.43015 -2.98883 170.08086 -2.98883 C 171.73155 -2.98883 173.06969 -1.6507 173.06969 0 Z M 170.08086 0 "/>
<path transform="matrix(1,0,0,-1,31.534,42.872)" d="M 116.37607 0 C 116.37607 1.6507 115.03793 2.98883 113.38724 2.98883 C 111.73653 2.98883 110.3984 1.6507 110.3984 0 C 110.3984 -1.6507 111.73653 -2.98883 113.38724 -2.98883 C 115.03793 -2.98883 116.37607 -1.6507 116.37607 0 Z M 113.38724 0 " fill="#ff8000"/>
<path transform="matrix(1,0,0,-1,31.534,42.872)" stroke-width=".3985" stroke-linecap="butt" stroke-miterlimit="10" stroke-linejoin="miter" fill="none" stroke="#ff8000" d="M 116.37607 0 C 116.37607 1.6507 115.03793 2.98883 113.38724 2.98883 C 111.73653 2.98883 110.3984 1.6507 110.3984 0 C 110.3984 -1.6507 111.73653 -2.98883 113.38724 -2.98883 C 115.03793 -2.98883 116.37607 -1.6507 116.37607 0 Z M 113.38724 0 "/>
<path transform="matrix(1,0,0,-1,31.534,42.872)" stroke-width=".3985" stroke-linecap="butt" stroke-miterlimit="10" stroke-linejoin="miter" fill="none" stroke="#000000" d="M 0 39.68535 L -28.3468 -31.18166 "/>
<path transform="matrix(1,0,0,-1,31.534,42.872)" stroke-width=".3985" stroke-linecap="butt" stroke-miterlimit="10" stroke-linejoin="miter" fill="none" stroke="#000000" d="M 0 39.68535 L 28.3468 -31.18166 "/>
<path transform="matrix(1,0,0,-1,31.534,42.872)" d="M 2.98883 39.68535 C 2.98883 41.33606 1.6507 42.67418 0 42.67418 C -1.6507 42.67418 -2.98883 41.33606 -2.98883 39.68535 C -2.98883 38.03464 -1.6507 36.69652 0 36.69652 C 1.6507 36.69652 2.98883 38.03464 2.98883 39.68535 Z M 0 39.68535 " fill="#ec008c"/>
<path transform="matrix(1,0,0,-1,31.534,42.872)" stroke-width=".3985" stroke-linecap="butt" stroke-miterlimit="10" stroke-linejoin="miter" fill="none" stroke="#ec008c" d="M 2.98883 39.68535 C 2.98883 41.33606 1.6507 42.67418 0 42.67418 C -1.6507 42.67418 -2.98883 41.33606 -2.98883 39.68535 C -2.98883 38.03464 -1.6507 36.69652 0 36.69652 C 1.6507 36.69652 2.98883 38.03464 2.98883 39.68535 Z M 0 39.68535 "/>
<path transform="matrix(1,0,0,-1,31.534,42.872)" d="M -25.35797 -31.18166 C -25.35797 -29.53094 -26.69609 -28.19283 -28.3468 -28.19283 C -29.99751 -28.19283 -31.33563 -29.53094 -31.33563 -31.18166 C -31.33563 -32.83235 -29.99751 -34.17049 -28.3468 -34.17049 C -26.69609 -34.17049 -25.35797 -32.83235 -25.35797 -31.18166 Z M -28.3468 -31.18166 " fill="#0000ff"/>
<path transform="matrix(1,0,0,-1,31.534,42.872)" stroke-width=".3985" stroke-linecap="butt" stroke-miterlimit="10" stroke-linejoin="miter" fill="none" stroke="#0000ff" d="M -25.35797 -31.18166 C -25.35797 -29.53094 -26.69609 -28.19283 -28.3468 -28.19283 C -29.99751 -28.19283 -31.33563 -29.53094 -31.33563 -31.18166 C -31.33563 -32.83235 -29.99751 -34.17049 -28.3468 -34.17049 C -26.69609 -34.17049 -25.35797 -32.83235 -25.35797 -31.18166 Z M -28.3468 -31.18166 "/>
<path transform="matrix(1,0,0,-1,31.534,42.872)" d="M 31.33563 -31.18166 C 31.33563 -29.53094 29.99751 -28.19283 28.3468 -28.19283 C 26.69609 -28.19283 25.35797 -29.53094 25.35797 -31.18166 C 25.35797 -32.83235 26.69609 -34.17049 28.3468 -34.17049 C 29.99751 -34.17049 31.33563 -32.83235 31.33563 -31.18166 Z M 28.3468 -31.18166 " fill="#0000ff"/>
<path transform="matrix(1,0,0,-1,31.534,42.872)" stroke-width=".3985" stroke-linecap="butt" stroke-miterlimit="10" stroke-linejoin="miter" fill="none" stroke="#0000ff" d="M 31.33563 -31.18166 C 31.33563 -29.53094 29.99751 -28.19283 28.3468 -28.19283 C 26.69609 -28.19283 25.35797 -29.53094 25.35797 -31.18166 C 25.35797 -32.83235 26.69609 -34.17049 28.3468 -34.17049 C 29.99751 -34.17049 31.33563 -32.83235 31.33563 -31.18166 Z M 28.3468 -31.18166 "/>
<text xml:space="preserve" transform="matrix(1 0 -0 1 -.000015258789 107.037)" font-size="9.9626" font-family="CMMI10" font-style="italic"><tspan y="-4.815" x="167.977">S</tspan></text>
<text xml:space="preserve" transform="matrix(1 0 -0 1 -.000015258789 107.037)" font-size="6.9738" font-family="CMR7"><tspan y="-3.321" x="174.087">5</tspan></text>
</g>
</svg>
