<?xml version="1.0" encoding="UTF-8" standalone="no"?>
<!DOCTYPE svg PUBLIC "-//W3C//DTD SVG 1.1//EN" "http://www.w3.org/Graphics/SVG/1.1/DTD/svg11.dtd">
<svg xmlns="http://www.w3.org/2000/svg" xmlns:xlink="http://www.w3.org/1999/xlink" version="1.1" width="204.801pt" height="107.037pt" viewBox="0 0 204.801 107.037">
<g enable-background="new">
<path transform="matrix(1,0,0,-1,31.534,42.872)" stroke-width=".3985" stroke-linecap="butt" stroke-miterlimit="10" stroke-linejoin="miter" fill="none" stroke="#000000" d="M 62.36288 0 L 87.47676 0 "/>
<path transform="matrix(1,0,0,-1,119.21004,42.872)" stroke-width=".3985" stroke-linecap="round" stroke-linejoin="round" fill="none" stroke="#000000" d="M -2.07224 2.39104 C -1.69365 .95639 -.84999 .27895 0 0 C -.84999 -.27895 -1.69365 -.95639 -2.07224 -2.39104 "/>
<text xml:space="preserve" transform="matrix(1 0 -0 1 -.0000076293949 107.037)" font-size="9.9626" font-family="CMMI10" font-style="italic"><tspan y="-72.456" x="103.678">f</tspan></text>
<path transform="matrix(1,0,0,-1,31.534,42.872)" stroke-width=".3985" stroke-linecap="butt" stroke-miterlimit="10" stroke-linejoin="miter" fill="none" stroke="#000000" d="M 0 28.3468 L 0 -28.3468 "/>
<path transform="matrix(1,0,0,-1,31.534,42.872)" stroke-width=".3985" stroke-linecap="butt" stroke-miterlimit="10" stroke-linejoin="miter" fill="none" stroke="#000000" d="M -28.3468 0 L 28.3468 0 "/>
<text xml:space="preserve" transform="matrix(1 0 -0 1 0 107.036)" font-size="9.9626" font-family="CMMI10" font-style="italic"><tspan y="-4.815" x="26.245">S</tspan></text>
<text xml:space="preserve" transform="matrix(1 0 -0 1 0 107.036)" font-size="6.9738" font-family="CMR7"><tspan y="-3.321" x="32.354">5</tspan></text>
<path transform="matrix(1,0,0,-1,31.534,42.872)" d="M 2.98883 0 C 2.98883 1.6507 1.6507 2.98883 0 2.98883 C -1.6507 2.98883 -2.98883 1.6507 -2.98883 0 C -2.98883 -1.6507 -1.6507 -2.98883 0 -2.98883 C 1.6507 -2.98883 2.98883 -1.6507 2.98883 0 Z M 0 0 " fill="#008080"/>
<path transform="matrix(1,0,0,-1,31.534,42.872)" stroke-width=".3985" stroke-linecap="butt" stroke-miterlimit="10" stroke-linejoin="miter" fill="none" stroke="#008080" d="M 2.98883 0 C 2.98883 1.6507 1.6507 2.98883 0 2.98883 C -1.6507 2.98883 -2.98883 1.6507 -2.98883 0 C -2.98883 -1.6507 -1.6507 -2.98883 0 -2.98883 C 1.6507 -2.98883 2.98883 -1.6507 2.98883 0 Z M 0 0 "/>
<path transform="matrix(1,0,0,-1,31.534,42.872)" d="M 2.98883 28.3468 C 2.98883 29.99751 1.6507 31.33563 0 31.33563 C -1.6507 31.33563 -2.98883 29.99751 -2.98883 28.3468 C -2.98883 26.69609 -1.6507 25.35797 0 25.35797 C 1.6507 25.35797 2.98883 26.69609 2.98883 28.3468 Z M 0 28.3468 " fill="#ff8000"/>
<path transform="matrix(1,0,0,-1,31.534,42.872)" stroke-width=".3985" stroke-linecap="butt" stroke-miterlimit="10" stroke-linejoin="miter" fill="none" stroke="#ff8000" d="M 2.98883 28.3468 C 2.98883 29.99751 1.6507 31.33563 0 31.33563 C -1.6507 31.33563 -2.98883 29.99751 -2.98883 28.3468 C -2.98883 26.69609 -1.6507 25.35797 0 25.35797 C 1.6507 25.35797 2.98883 26.69609 2.98883 28.3468 Z M 0 28.3468 "/>
<path transform="matrix(1,0,0,-1,31.534,42.872)" d="M 2.98883 -28.3468 C 2.98883 -26.69609 1.6507 -25.35797 0 -25.35797 C -1.6507 -25.35797 -2.98883 -26.69609 -2.98883 -28.3468 C -2.98883 -29.99751 -1.6507 -31.33563 0 -31.33563 C 1.6507 -31.33563 2.98883 -29.99751 2.98883 -28.3468 Z M 0 -28.3468 " fill="#ff8000"/>
<path transform="matrix(1,0,0,-1,31.534,42.872)" stroke-width=".3985" stroke-linecap="butt" stroke-miterlimit="10" stroke-linejoin="miter" fill="none" stroke="#ff8000" d="M 2.98883 -28.3468 C 2.98883 -26.69609 1.6507 -25.35797 0 -25.35797 C -1.6507 -25.35797 -2.98883 -26.69609 -2.98883 -28.3468 C -2.98883 -29.99751 -1.6507 -31.33563 0 -31.33563 C 1.6507 -31.33563 2.98883 -29.99751 2.98883 -28.3468 Z M 0 -28.3468 "/>
<path transform="matrix(1,0,0,-1,31.534,42.872)" d="M 31.33563 0 C 31.33563 1.6507 29.99751 2.98883 28.3468 2.98883 C 26.69609 2.98883 25.35797 1.6507 25.35797 0 C 25.35797 -1.6507 26.69609 -2.98883 28.3468 -2.98883 C 29.99751 -2.98883 31.33563 -1.6507 31.33563 0 Z M 28.3468 0 " fill="#ff8000"/>
<path transform="matrix(1,0,0,-1,31.534,42.872)" stroke-width=".3985" stroke-linecap="butt" stroke-miterlimit="10" stroke-linejoin="miter" fill="none" stroke="#ff8000" d="M 31.33563 0 C 31.33563 1.6507 29.99751 2.98883 28.3468 2.98883 C 26.69609 2.98883 25.35797 1.6507 25.35797 0 C 25.35797 -1.6507 26.69609 -2.98883 28.3468 -2.98883 C 29.99751 -2.98883 31.33563 -1.6507 31.33563 0 Z M 28.3468 0 "/>
<path transform="matrix(1,0,0,-1,31.534,42.872)" d="M -25.35797 0 C -25.35797 1.6507 -26.69609 2.98883 -28.3468 2.98883 C -29.99751 2.98883 -31.33563 1.6507 -31.33563 0 C -31.33563 -1.6507 -29.99751 -2.98883 -28.3468 -2.98883 C -26.69609 -2.98883 -25.35797 -1.6507 -25.35797 0 Z M -28.3468 0 " fill="#ff8000"/>
<path transform="matrix(1,0,0,-1,31.534,42.872)" stroke-width=".3985" stroke-linecap="butt" stroke-miterlimit="10" stroke-linejoin="miter" fill="none" stroke="#ff8000" d="M -25.35797 0 C -25.35797 1.6507 -26.69609 2.98883 -28.3468 2.98883 C -29.99751 2.98883 -31.33563 1.6507 -31.33563 0 C -31.33563 -1.6507 -29.99751 -2.98883 -28.3468 -2.98883 C -26.69609 -2.98883 -25.35797 -1.6507 -25.35797 0 Z M -28.3468 0 "/>
<path transform="matrix(1,0,0,-1,31.534,42.872)" stroke-width=".3985" stroke-linecap="butt" stroke-miterlimit="10" stroke-linejoin="miter" fill="none" stroke="#000000" d="M 141.73404 39.68535 L 113.38724 -31.18166 "/>
<path transform="matrix(1,0,0,-1,31.534,42.872)" stroke-width=".3985" stroke-linecap="butt" stroke-miterlimit="10" stroke-linejoin="miter" fill="none" stroke="#000000" d="M 141.73404 39.68535 L 170.08086 -31.18166 "/>
<path transform="matrix(1,0,0,-1,31.534,42.872)" d="M 144.72287 39.68535 C 144.72287 41.33606 143.38475 42.67418 141.73404 42.67418 C 140.08333 42.67418 138.74521 41.33606 138.74521 39.68535 C 138.74521 38.03464 140.08333 36.69652 141.73404 36.69652 C 143.38475 36.69652 144.72287 38.03464 144.72287 39.68535 Z M 141.73404 39.68535 " fill="#ec008c"/>
<path transform="matrix(1,0,0,-1,31.534,42.872)" stroke-width=".3985" stroke-linecap="butt" stroke-miterlimit="10" stroke-linejoin="miter" fill="none" stroke="#ec008c" d="M 144.72287 39.68535 C 144.72287 41.33606 143.38475 42.67418 141.73404 42.67418 C 140.08333 42.67418 138.74521 41.33606 138.74521 39.68535 C 138.74521 38.03464 140.08333 36.69652 141.73404 36.69652 C 143.38475 36.69652 144.72287 38.03464 144.72287 39.68535 Z M 141.73404 39.68535 "/>
<path transform="matrix(1,0,0,-1,31.534,42.872)" d="M 116.37607 -31.18166 C 116.37607 -29.53094 115.03793 -28.19283 113.38724 -28.19283 C 111.73653 -28.19283 110.3984 -29.53094 110.3984 -31.18166 C 110.3984 -32.83235 111.73653 -34.17049 113.38724 -34.17049 C 115.03793 -34.17049 116.37607 -32.83235 116.37607 -31.18166 Z M 113.38724 -31.18166 " fill="#0000ff"/>
<path transform="matrix(1,0,0,-1,31.534,42.872)" stroke-width=".3985" stroke-linecap="butt" stroke-miterlimit="10" stroke-linejoin="miter" fill="none" stroke="#0000ff" d="M 116.37607 -31.18166 C 116.37607 -29.53094 115.03793 -28.19283 113.38724 -28.19283 C 111.73653 -28.19283 110.3984 -29.53094 110.3984 -31.18166 C 110.3984 -32.83235 111.73653 -34.17049 113.38724 -34.17049 C 115.03793 -34.17049 116.37607 -32.83235 116.37607 -31.18166 Z M 113.38724 -31.18166 "/>
<path transform="matrix(1,0,0,-1,31.534,42.872)" d="M 173.06969 -31.18166 C 173.06969 -29.53094 171.73155 -28.19283 170.08086 -28.19283 C 168.43015 -28.19283 167.09203 -29.53094 167.09203 -31.18166 C 167.09203 -32.83235 168.43015 -34.17049 170.08086 -34.17049 C 171.73155 -34.17049 173.06969 -32.83235 173.06969 -31.18166 Z M 170.08086 -31.18166 " fill="#0000ff"/>
<path transform="matrix(1,0,0,-1,31.534,42.872)" stroke-width=".3985" stroke-linecap="butt" stroke-miterlimit="10" stroke-linejoin="miter" fill="none" stroke="#0000ff" d="M 173.06969 -31.18166 C 173.06969 -29.53094 171.73155 -28.19283 170.08086 -28.19283 C 168.43015 -28.19283 167.09203 -29.53094 167.09203 -31.18166 C 167.09203 -32.83235 168.43015 -34.17049 170.08086 -34.17049 C 171.73155 -34.17049 173.06969 -32.83235 173.06969 -31.18166 Z M 170.08086 -31.18166 "/>
<text xml:space="preserve" transform="matrix(1 0 -0 1 -.000015258789 107.037)" font-size="9.9626" font-family="CMMI10" font-style="italic"><tspan y="-4.815" x="167.977">S</tspan></text>
<text xml:space="preserve" transform="matrix(1 0 -0 1 -.000015258789 107.037)" font-size="6.9738" font-family="CMR7"><tspan y="-3.321" x="174.087">3</tspan></text>
</g>
</svg>
