<?xml version="1.0" encoding="UTF-8" standalone="no"?>
<!DOCTYPE svg PUBLIC "-//W3C//DTD SVG 1.1//EN" "http://www.w3.org/Graphics/SVG/1.1/DTD/svg11.dtd">
<svg xmlns="http://www.w3.org/2000/svg" xmlns:xlink="http://www.w3.org/1999/xlink" version="1.1" width="76.514pt" height="76.168pt" viewBox="0 0 76.514 76.168">
<g enable-background="new">
<path transform="matrix(1,0,0,-1,38.438,39.475999)" stroke-width=".3985" stroke-linecap="butt" stroke-miterlimit="10" stroke-linejoin="miter" fill="none" stroke="#000000" d="M 0 0 L 0 0 "/>
<text xml:space="preserve" transform="matrix(1 0 -0 1 0 76.168)" font-size="9.9626" font-family="CMMI10" font-style="italic"><tspan y="-28.882" x="35.591">x</tspan></text>
<path transform="matrix(1,0,0,-1,38.438,39.475999)" stroke-width=".3985" stroke-linecap="butt" stroke-miterlimit="10" stroke-linejoin="miter" fill="none" stroke="#000000" d="M 0 28.3468 L 26.95966 8.75974 L 0 0 "/>
<path transform="matrix(1,0,0,-1,38.438,39.475999)" stroke-width=".3985" stroke-linecap="butt" stroke-miterlimit="10" stroke-linejoin="miter" fill="none" stroke="#000000" d="M 26.95966 8.75974 L 16.66179 -22.93315 L 0 0 "/>
<path transform="matrix(1,0,0,-1,38.438,39.475999)" stroke-width=".3985" stroke-linecap="butt" stroke-miterlimit="10" stroke-linejoin="miter" fill="none" stroke="#000000" d="M 16.66179 -22.93315 L -16.66179 -22.93315 L 0 0 "/>
<path transform="matrix(1,0,0,-1,38.438,39.475999)" stroke-width=".3985" stroke-linecap="butt" stroke-miterlimit="10" stroke-linejoin="miter" fill="none" stroke="#000000" d="M -16.66179 -22.93315 L -26.95966 8.75974 L 0 0 "/>
<path transform="matrix(1,0,0,-1,38.438,39.475999)" stroke-width=".3985" stroke-linecap="butt" stroke-miterlimit="10" stroke-linejoin="miter" fill="none" stroke="#000000" d="M -26.95966 8.75974 L 0 28.3468 L 0 0 "/>
<path transform="matrix(1,0,0,-1,38.438,39.475999)" stroke-width=".3985" stroke-linecap="butt" stroke-miterlimit="10" stroke-linejoin="miter" fill="none" stroke="#000000" d="M 0 28.3468 L 26.95966 8.75974 L 0 0 "/>
<path transform="matrix(1,0,0,-1,38.438,39.475999)" stroke-width=".3985" stroke-linecap="butt" stroke-miterlimit="10" stroke-linejoin="miter" fill="none" stroke="#000000" d="M 0 28.3468 L 0 28.3468 "/>
<text xml:space="preserve" transform="matrix(1 0 -0 1 0 76.168)" font-size="9.9626" font-family="CMMI10" font-style="italic"><tspan y="-68.558" x="35.805">a</tspan></text>
<path transform="matrix(1,0,0,-1,38.438,39.475999)" stroke-width=".3985" stroke-linecap="butt" stroke-miterlimit="10" stroke-linejoin="miter" fill="none" stroke="#000000" d="M 26.95966 8.75974 L 26.95966 8.75974 "/>
<text xml:space="preserve" transform="matrix(1 0 -0 1 0 76.168)" font-size="9.9626" font-family="CMMI10" font-style="italic"><tspan y="-41.992" x="68.917">b</tspan></text>
<path transform="matrix(1,0,0,-1,38.438,39.475999)" stroke-width=".3985" stroke-linecap="butt" stroke-miterlimit="10" stroke-linejoin="miter" fill="none" stroke="#000000" d="M 16.66179 -22.93315 L 16.66179 -22.93315 "/>
<text xml:space="preserve" transform="matrix(1 0 -0 1 0 76.168)" font-size="9.9626" font-family="CMMI10" font-style="italic"><tspan y="-5.95" x="58.62">c</tspan></text>
<path transform="matrix(1,0,0,-1,38.438,39.475999)" stroke-width=".3985" stroke-linecap="butt" stroke-miterlimit="10" stroke-linejoin="miter" fill="none" stroke="#000000" d="M -16.66179 -22.93315 L -16.66179 -22.93315 "/>
<text xml:space="preserve" transform="matrix(1 0 -0 1 .0000009536743 76.168)" font-size="9.9626" font-family="CMMI10" font-style="italic"><tspan y="-3.321" x="13.072">d</tspan></text>
<path transform="matrix(1,0,0,-1,38.438,39.475999)" stroke-width=".3985" stroke-linecap="butt" stroke-miterlimit="10" stroke-linejoin="miter" fill="none" stroke="#000000" d="M -26.95966 8.75974 L -26.95966 8.75974 "/>
<text xml:space="preserve" transform="matrix(1 0 -0 1 -.00000023841859 76.168)" font-size="9.9626" font-family="CMMI10" font-style="italic"><tspan y="-43.307" x="3.32">e</tspan></text>
<path transform="matrix(1,0,0,-1,38.438,39.475999)" d="M 1.99255 0 C 1.99255 1.10046 1.10046 1.99255 0 1.99255 C -1.10046 1.99255 -1.99255 1.10046 -1.99255 0 C -1.99255 -1.10046 -1.10046 -1.99255 0 -1.99255 C 1.10046 -1.99255 1.99255 -1.10046 1.99255 0 Z M 0 0 "/>
<path transform="matrix(1,0,0,-1,38.438,39.475999)" stroke-width=".3985" stroke-linecap="butt" stroke-miterlimit="10" stroke-linejoin="miter" fill="none" stroke="#000000" d="M 1.99255 0 C 1.99255 1.10046 1.10046 1.99255 0 1.99255 C -1.10046 1.99255 -1.99255 1.10046 -1.99255 0 C -1.99255 -1.10046 -1.10046 -1.99255 0 -1.99255 C 1.10046 -1.99255 1.99255 -1.10046 1.99255 0 Z M 0 0 "/>
<path transform="matrix(1,0,0,-1,38.438,39.475999)" d="M 1.99255 28.3468 C 1.99255 29.44728 1.10046 30.33936 0 30.33936 C -1.10046 30.33936 -1.99255 29.44728 -1.99255 28.3468 C -1.99255 27.24634 -1.10046 26.35425 0 26.35425 C 1.10046 26.35425 1.99255 27.24634 1.99255 28.3468 Z M 0 28.3468 "/>
<path transform="matrix(1,0,0,-1,38.438,39.475999)" stroke-width=".3985" stroke-linecap="butt" stroke-miterlimit="10" stroke-linejoin="miter" fill="none" stroke="#000000" d="M 1.99255 28.3468 C 1.99255 29.44728 1.10046 30.33936 0 30.33936 C -1.10046 30.33936 -1.99255 29.44728 -1.99255 28.3468 C -1.99255 27.24634 -1.10046 26.35425 0 26.35425 C 1.10046 26.35425 1.99255 27.24634 1.99255 28.3468 Z M 0 28.3468 "/>
<path transform="matrix(1,0,0,-1,38.438,39.475999)" d="M 28.95221 8.75974 C 28.95221 9.86021 28.06012 10.75229 26.95966 10.75229 C 25.85918 10.75229 24.9671 9.86021 24.9671 8.75974 C 24.9671 7.65927 25.85918 6.76718 26.95966 6.76718 C 28.06012 6.76718 28.95221 7.65927 28.95221 8.75974 Z M 26.95966 8.75974 "/>
<path transform="matrix(1,0,0,-1,38.438,39.475999)" stroke-width=".3985" stroke-linecap="butt" stroke-miterlimit="10" stroke-linejoin="miter" fill="none" stroke="#000000" d="M 28.95221 8.75974 C 28.95221 9.86021 28.06012 10.75229 26.95966 10.75229 C 25.85918 10.75229 24.9671 9.86021 24.9671 8.75974 C 24.9671 7.65927 25.85918 6.76718 26.95966 6.76718 C 28.06012 6.76718 28.95221 7.65927 28.95221 8.75974 Z M 26.95966 8.75974 "/>
<path transform="matrix(1,0,0,-1,38.438,39.475999)" d="M 18.65434 -22.93315 C 18.65434 -21.83267 17.76225 -20.9406 16.66179 -20.9406 C 15.56131 -20.9406 14.66924 -21.83267 14.66924 -22.93315 C 14.66924 -24.03362 15.56131 -24.9257 16.66179 -24.9257 C 17.76225 -24.9257 18.65434 -24.03362 18.65434 -22.93315 Z M 16.66179 -22.93315 "/>
<path transform="matrix(1,0,0,-1,38.438,39.475999)" stroke-width=".3985" stroke-linecap="butt" stroke-miterlimit="10" stroke-linejoin="miter" fill="none" stroke="#000000" d="M 18.65434 -22.93315 C 18.65434 -21.83267 17.76225 -20.9406 16.66179 -20.9406 C 15.56131 -20.9406 14.66924 -21.83267 14.66924 -22.93315 C 14.66924 -24.03362 15.56131 -24.9257 16.66179 -24.9257 C 17.76225 -24.9257 18.65434 -24.03362 18.65434 -22.93315 Z M 16.66179 -22.93315 "/>
<path transform="matrix(1,0,0,-1,38.438,39.475999)" d="M -14.66924 -22.93315 C -14.66924 -21.83267 -15.56131 -20.9406 -16.66179 -20.9406 C -17.76225 -20.9406 -18.65434 -21.83267 -18.65434 -22.93315 C -18.65434 -24.03362 -17.76225 -24.9257 -16.66179 -24.9257 C -15.56131 -24.9257 -14.66924 -24.03362 -14.66924 -22.93315 Z M -16.66179 -22.93315 "/>
<path transform="matrix(1,0,0,-1,38.438,39.475999)" stroke-width=".3985" stroke-linecap="butt" stroke-miterlimit="10" stroke-linejoin="miter" fill="none" stroke="#000000" d="M -14.66924 -22.93315 C -14.66924 -21.83267 -15.56131 -20.9406 -16.66179 -20.9406 C -17.76225 -20.9406 -18.65434 -21.83267 -18.65434 -22.93315 C -18.65434 -24.03362 -17.76225 -24.9257 -16.66179 -24.9257 C -15.56131 -24.9257 -14.66924 -24.03362 -14.66924 -22.93315 Z M -16.66179 -22.93315 "/>
<path transform="matrix(1,0,0,-1,38.438,39.475999)" d="M -24.9671 8.75974 C -24.9671 9.86021 -25.85918 10.75229 -26.95966 10.75229 C -28.06012 10.75229 -28.95221 9.86021 -28.95221 8.75974 C -28.95221 7.65927 -28.06012 6.76718 -26.95966 6.76718 C -25.85918 6.76718 -24.9671 7.65927 -24.9671 8.75974 Z M -26.95966 8.75974 "/>
<path transform="matrix(1,0,0,-1,38.438,39.475999)" stroke-width=".3985" stroke-linecap="butt" stroke-miterlimit="10" stroke-linejoin="miter" fill="none" stroke="#000000" d="M -24.9671 8.75974 C -24.9671 9.86021 -25.85918 10.75229 -26.95966 10.75229 C -28.06012 10.75229 -28.95221 9.86021 -28.95221 8.75974 C -28.95221 7.65927 -28.06012 6.76718 -26.95966 6.76718 C -25.85918 6.76718 -24.9671 7.65927 -24.9671 8.75974 Z M -26.95966 8.75974 "/>
<path transform="matrix(1,0,0,-1,38.438,39.475999)" d="M 1.99255 28.3468 C 1.99255 29.44728 1.10046 30.33936 0 30.33936 C -1.10046 30.33936 -1.99255 29.44728 -1.99255 28.3468 C -1.99255 27.24634 -1.10046 26.35425 0 26.35425 C 1.10046 26.35425 1.99255 27.24634 1.99255 28.3468 Z M 0 28.3468 "/>
<path transform="matrix(1,0,0,-1,38.438,39.475999)" stroke-width=".3985" stroke-linecap="butt" stroke-miterlimit="10" stroke-linejoin="miter" fill="none" stroke="#000000" d="M 1.99255 28.3468 C 1.99255 29.44728 1.10046 30.33936 0 30.33936 C -1.10046 30.33936 -1.99255 29.44728 -1.99255 28.3468 C -1.99255 27.24634 -1.10046 26.35425 0 26.35425 C 1.10046 26.35425 1.99255 27.24634 1.99255 28.3468 Z M 0 28.3468 "/>
<path transform="matrix(1,0,0,-1,38.438,39.475999)" stroke-width="1.59404" stroke-linecap="butt" stroke-dasharray="2.98883,2.98883" stroke-miterlimit="10" stroke-linejoin="miter" fill="none" stroke="#ff0000" d="M 3.5198 25.78992 L 23.43983 11.31607 M 23.43983 7.61624 L 3.5198 1.14322 "/>
<path transform="matrix(1,0,0,-1,38.438,39.475999)" stroke-width="1.59404" stroke-linecap="butt" stroke-dasharray="2.98883,2.98883" stroke-miterlimit="10" stroke-linejoin="miter" fill="none" stroke="#0000ff" d="M -3.5198 1.14348 L -23.43983 7.61652 M -23.43983 11.31662 L -4.80936 24.8535 "/>
<path transform="matrix(.80898,-.5878,-.5878,-.80898,34.2734,14.154018)" stroke-width="1.59404" stroke-linecap="round" stroke-linejoin="round" fill="none" stroke="#0000ff" d="M -3.5069 4.55072 C -2.8662 1.82025 -1.43846 .5309 0 0 C -1.43846 -.5309 -2.8662 -1.82025 -3.5069 -4.55072 "/>
</g>
</svg>
