<?xml version="1.0" encoding="UTF-8" standalone="no"?>
<!DOCTYPE svg PUBLIC "-//W3C//DTD SVG 1.1//EN" "http://www.w3.org/Graphics/SVG/1.1/DTD/svg11.dtd">
<svg xmlns="http://www.w3.org/2000/svg" xmlns:xlink="http://www.w3.org/1999/xlink" version="1.1" width="142.529pt" height="52.189pt" viewBox="0 0 142.529 52.189">
<g enable-background="new">
<path transform="matrix(1,0,0,-1,.398,40.367)" stroke-width=".79701" stroke-linecap="butt" stroke-miterlimit="10" stroke-linejoin="miter" fill="none" stroke="#000000" d="M 0 0 L 56.69362 0 "/>
<path transform="matrix(1,0,0,-1,.398,40.367)" stroke-width=".79701" stroke-linecap="butt" stroke-miterlimit="10" stroke-linejoin="miter" fill="none" stroke="#000000" d="M 0 28.3468 L 56.69362 28.3468 "/>
<clipPath id="cp0">
<path transform="matrix(1,0,0,-1,.398,40.367)" d="M 0 0 L 0 28.3468 L 56.69362 28.3468 L 56.69362 0 Z M 56.69362 28.3468 "/>
</clipPath>
<g clip-path="url(#cp0)">
<symbol id="pac1">
<path transform="matrix(1,0,0,-1,0,52.189)" stroke-width=".3985" stroke-linecap="butt" stroke-miterlimit="10" stroke-linejoin="miter" fill="none" stroke="#0000ff" d="M 0 0 L 3.08846 3.08846 "/>
</symbol>
<pattern id="pa1" patternUnits="userSpaceOnUse" patternContentUnits="userSpaceOnUse" x="0" y="0" width="2.98883" height="2.98883">
<clipPath id="cp2">
<path d="M -.99628 -.99628 L 3.9851 -.99628 L 3.9851 3.9851 L -.99628 3.9851 Z"/>
</clipPath>
<g clip-path="url(#cp2)">
<g transform="matrix(1,0,0,-1,-0,52.189)">
<use x="0" y="0" xlink:href="#pac1"/>
<use x="0" y="-2.98883" xlink:href="#pac1"/>
<use x="-2.98883" y="0" xlink:href="#pac1"/>
<use x="-2.98883" y="-2.98883" xlink:href="#pac1"/>
</g>
</g>
</pattern>
<rect transform="matrix(1,0,0,-1,0,52.189)" fill="url(#pa1)" x="-3.587" y="7.836998" width="64.66362" height="36.3168"/>
</g>
<path transform="matrix(1,0,0,-1,.398,40.367)" stroke-width=".3985" stroke-linecap="butt" stroke-miterlimit="10" stroke-linejoin="miter" fill="none" stroke="#000000" d="M 0 0 L 0 28.3468 L 56.69362 28.3468 L 56.69362 0 Z M 56.69362 28.3468 "/>
<path transform="matrix(1,0,0,-1,.398,40.367)" stroke-width=".3985" stroke-linecap="butt" stroke-miterlimit="10" stroke-linejoin="miter" fill="none" stroke="#000000" d="M 28.3468 0 L 28.3468 0 "/>
<text xml:space="preserve" transform="matrix(1 0 -0 1 .0000019073487 52.189004)" font-size="4.9813" font-family="CMR5"><tspan y="-4.566" x="18.897">[</tspan></text>
<text xml:space="preserve" transform="matrix(1 0 -0 1 .0000019073487 52.189004)" font-size="4.9813" font-family="CMSY5" font-style="italic"><tspan y="-4.566" x="20.904">&#x2212;</tspan></text>
<text xml:space="preserve" transform="matrix(1 0 -0 1 .0000019073487 52.189004)" font-size="4.9813" font-family="CMR5"><tspan y="-4.566" x="26.3">1</tspan></text>
<text xml:space="preserve" transform="matrix(1 0 -0 1 .0000019073487 52.189004)" font-size="4.9813" font-family="CMMI5" font-style="italic"><tspan y="-4.566" x="29.689999">,</tspan></text>
<text xml:space="preserve" transform="matrix(1 0 -0 1 .0000019073487 52.189004)" font-size="4.9813" font-family="CMR5"><tspan y="-4.566" x="33.196 36.588266">1]</tspan></text>
<path transform="matrix(1,0,0,-1,.398,40.367)" stroke-width=".3985" stroke-linecap="butt" stroke-miterlimit="10" stroke-linejoin="miter" fill="none" stroke="#000000" d="M 28.3468 28.3468 L 28.3468 28.3468 "/>
<text xml:space="preserve" transform="matrix(1 0 -0 1 .0000019073487 52.189)" font-size="4.9813" font-family="CMR5"><tspan y="-44.933" x="18.897">[</tspan></text>
<text xml:space="preserve" transform="matrix(1 0 -0 1 .0000019073487 52.189)" font-size="4.9813" font-family="CMSY5" font-style="italic"><tspan y="-44.933" x="20.904">&#x2212;</tspan></text>
<text xml:space="preserve" transform="matrix(1 0 -0 1 .0000019073487 52.189)" font-size="4.9813" font-family="CMR5"><tspan y="-44.933" x="26.3">1</tspan></text>
<text xml:space="preserve" transform="matrix(1 0 -0 1 .0000019073487 52.189)" font-size="4.9813" font-family="CMMI5" font-style="italic"><tspan y="-44.933" x="29.689999">,</tspan></text>
<text xml:space="preserve" transform="matrix(1 0 -0 1 .0000019073487 52.189)" font-size="4.9813" font-family="CMR5"><tspan y="-44.933" x="33.196 36.588266">1]</tspan></text>
<path transform="matrix(1,0,0,-1,.398,40.367)" stroke-width=".79701" stroke-linecap="butt" stroke-miterlimit="10" stroke-linejoin="miter" fill="none" stroke="#000000" d="M 85.04042 28.3468 L 141.73404 28.3468 "/>
<text xml:space="preserve" transform="matrix(1 0 -0 1 .0000076293949 52.189)" font-size="4.9813" font-family="CMR5"><tspan y="-45.132" x="103.937">[</tspan></text>
<text xml:space="preserve" transform="matrix(1 0 -0 1 .0000076293949 52.189)" font-size="4.9813" font-family="CMSY5" font-style="italic"><tspan y="-45.132" x="105.94299">&#x2212;</tspan></text>
<text xml:space="preserve" transform="matrix(1 0 -0 1 .0000076293949 52.189)" font-size="4.9813" font-family="CMR5"><tspan y="-45.132" x="111.34">1</tspan></text>
<text xml:space="preserve" transform="matrix(1 0 -0 1 .0000076293949 52.189)" font-size="4.9813" font-family="CMMI5" font-style="italic"><tspan y="-45.132" x="114.729999">,</tspan></text>
<text xml:space="preserve" transform="matrix(1 0 -0 1 .0000076293949 52.189)" font-size="4.9813" font-family="CMR5"><tspan y="-45.132" x="118.23499 121.62726">1]</tspan></text>
<path transform="matrix(1,0,0,-1,.398,40.367)" stroke-width=".3985" stroke-linecap="butt" stroke-miterlimit="10" stroke-linejoin="miter" fill="none" stroke="#000000" d="M 113.38724 0 L 113.38724 0 "/>
<text xml:space="preserve" transform="matrix(1 0 -0 1 .0000076293949 52.189)" font-size="4.9813" font-family="CMR5"><tspan y="-5.092" x="112.089">0</tspan></text>
<path transform="matrix(1,0,0,-1,.398,40.367)" d="M 114.38351 0 C 114.38351 .55023 113.93747 .99628 113.38724 .99628 C 112.83699 .99628 112.39096 .55023 112.39096 0 C 112.39096 -.55023 112.83699 -.99628 113.38724 -.99628 C 113.93747 -.99628 114.38351 -.55023 114.38351 0 Z M 113.38724 0 "/>
<path transform="matrix(1,0,0,-1,.398,40.367)" stroke-width=".3985" stroke-linecap="butt" stroke-miterlimit="10" stroke-linejoin="miter" fill="none" stroke="#000000" d="M 114.38351 0 C 114.38351 .55023 113.93747 .99628 113.38724 .99628 C 112.83699 .99628 112.39096 .55023 112.39096 0 C 112.39096 -.55023 112.83699 -.99628 113.38724 -.99628 C 113.93747 -.99628 114.38351 -.55023 114.38351 0 Z M 113.38724 0 "/>
<path transform="matrix(1,0,0,-1,.398,40.367)" stroke-width=".3985" stroke-linecap="butt" stroke-miterlimit="10" stroke-linejoin="miter" fill="none" stroke="#000000" d="M 62.36288 14.17339 L 78.97263 14.17339 "/>
<path transform="matrix(1,0,0,-1,79.569889,26.193612)" stroke-width=".3985" stroke-linecap="round" stroke-linejoin="round" fill="none" stroke="#000000" d="M -2.07224 2.39104 C -1.69365 .95639 -.84999 .27895 0 0 C -.84999 -.27895 -1.69365 -.95639 -2.07224 -2.39104 "/>
<text xml:space="preserve" transform="matrix(1 0 -0 1 .0000076293949 52.189004)" font-size="9.9626" font-family="CMMI10" font-style="italic"><tspan y="-31.452" x="68.006">&#x03d5;</tspan></text>
<clipPath id="cp3">
<path transform="matrix(1,0,0,-1,.398,40.367)" d="M 85.04042 28.3468 L 141.73404 28.3468 L 113.38724 0 L 85.04042 28.3468 "/>
</clipPath>
<g clip-path="url(#cp3)">
<symbol id="pac4">
<path transform="matrix(1,0,0,-1,0,52.189)" stroke-width=".3985" stroke-linecap="butt" stroke-miterlimit="10" stroke-linejoin="miter" fill="none" stroke="#0000ff" d="M 0 0 L 3.08846 3.08846 "/>
</symbol>
<pattern id="pa4" patternUnits="userSpaceOnUse" patternContentUnits="userSpaceOnUse" x="0" y="0" width="2.98883" height="2.98883">
<clipPath id="cp5">
<path d="M -.99628 -.99628 L 3.9851 -.99628 L 3.9851 3.9851 L -.99628 3.9851 Z"/>
</clipPath>
<g clip-path="url(#cp5)">
<g transform="matrix(1,0,0,-1,-0,52.189)">
<use x="0" y="0" xlink:href="#pac4"/>
<use x="0" y="-2.98883" xlink:href="#pac4"/>
<use x="-2.98883" y="0" xlink:href="#pac4"/>
<use x="-2.98883" y="-2.98883" xlink:href="#pac4"/>
</g>
</g>
</pattern>
<rect transform="matrix(1,0,0,-1,0,52.189)" fill="url(#pa4)" x="81.45342" y="7.836998" width="64.66361" height="36.3168"/>
</g>
<path transform="matrix(1,0,0,-1,.398,40.367)" stroke-width=".3985" stroke-linecap="butt" stroke-miterlimit="10" stroke-linejoin="miter" fill="none" stroke="#000000" d="M 85.04042 28.3468 L 141.73404 28.3468 L 113.38724 0 L 85.04042 28.3468 "/>
<path transform="matrix(1,0,0,-1,.398,40.367)" stroke-width=".3985" stroke-linecap="butt" stroke-miterlimit="10" stroke-linejoin="miter" fill="none" stroke="#000000" d="M 85.04042 0 L 85.04042 28.3468 L 141.73404 28.3468 L 141.73404 0 Z M 141.73404 28.3468 "/>
</g>
</svg>
