<?xml version="1.0" encoding="UTF-8" standalone="no"?>
<!DOCTYPE svg PUBLIC "-//W3C//DTD SVG 1.1//EN" "http://www.w3.org/Graphics/SVG/1.1/DTD/svg11.dtd">
<svg xmlns="http://www.w3.org/2000/svg" xmlns:xlink="http://www.w3.org/1999/xlink" version="1.1" width="51.648pt" height="53.807pt" viewBox="0 0 51.648 53.807">
<g enable-background="new">
<clipPath id="cp0">
<path transform="matrix(1,0,0,-1,11.822,40.545999)" d="M 5.66927 5.66927 L 5.66927 34.01608 L 34.01608 34.01608 L 34.01608 5.66927 Z M 34.01608 34.01608 "/>
</clipPath>
<g clip-path="url(#cp0)">
<symbol id="pac1">
<path transform="matrix(1,0,0,-1,0,53.807)" stroke-width=".3985" stroke-linecap="butt" stroke-miterlimit="10" stroke-linejoin="miter" fill="none" stroke="#0000ff" d="M 0 0 L 3.08846 3.08846 "/>
</symbol>
<pattern id="pa1" patternUnits="userSpaceOnUse" patternContentUnits="userSpaceOnUse" x="0" y="0" width="2.98883" height="2.98883">
<clipPath id="cp2">
<path d="M -.99628 -.99628 L 3.9851 -.99628 L 3.9851 3.9851 L -.99628 3.9851 Z"/>
</clipPath>
<g clip-path="url(#cp2)">
<g transform="matrix(1,0,0,-1,-0,53.807)">
<use x="0" y="0" xlink:href="#pac1"/>
<use x="0" y="-2.98883" xlink:href="#pac1"/>
<use x="-2.98883" y="0" xlink:href="#pac1"/>
<use x="-2.98883" y="-2.98883" xlink:href="#pac1"/>
</g>
</g>
</pattern>
<rect transform="matrix(1,0,0,-1,0,53.807)" fill="url(#pa1)" x="13.50627" y="14.945271" width="36.316808" height="36.31681"/>
</g>
<path transform="matrix(1,0,0,-1,11.822,40.545999)" stroke-width=".3985" stroke-linecap="butt" stroke-miterlimit="10" stroke-linejoin="miter" fill="none" stroke="#000000" d="M 5.66927 5.66927 L 5.66927 34.01608 L 34.01608 34.01608 L 34.01608 5.66927 Z M 34.01608 34.01608 "/>
<path transform="matrix(1,0,0,-1,11.822,40.545999)" d="M 6.66554 0 C 6.66554 .55023 6.2195 .99628 5.66927 .99628 C 5.11903 .99628 4.67299 .55023 4.67299 0 C 4.67299 -.55023 5.11903 -.99628 5.66927 -.99628 C 6.2195 -.99628 6.66554 -.55023 6.66554 0 Z M 5.66927 0 "/>
<path transform="matrix(1,0,0,-1,11.822,40.545999)" stroke-width=".3985" stroke-linecap="butt" stroke-miterlimit="10" stroke-linejoin="miter" fill="none" stroke="#000000" d="M 6.66554 0 C 6.66554 .55023 6.2195 .99628 5.66927 .99628 C 5.11903 .99628 4.67299 .55023 4.67299 0 C 4.67299 -.55023 5.11903 -.99628 5.66927 -.99628 C 6.2195 -.99628 6.66554 -.55023 6.66554 0 Z M 5.66927 0 "/>
<path transform="matrix(1,0,0,-1,11.822,40.545999)" stroke-width=".3985" stroke-linecap="butt" stroke-miterlimit="10" stroke-linejoin="miter" fill="none" stroke="#000000" d="M 5.66927 0 L 5.66927 0 "/>
<text xml:space="preserve" transform="matrix(1 0 -0 1 0 53.806997)" font-size="9.9626" font-family="CMR10"><tspan y="-3.321" x="15">0</tspan></text>
<path transform="matrix(1,0,0,-1,11.822,40.545999)" d="M 35.01236 0 C 35.01236 .55023 34.56631 .99628 34.01608 .99628 C 33.46584 .99628 33.0198 .55023 33.0198 0 C 33.0198 -.55023 33.46584 -.99628 34.01608 -.99628 C 34.56631 -.99628 35.01236 -.55023 35.01236 0 Z M 34.01608 0 "/>
<path transform="matrix(1,0,0,-1,11.822,40.545999)" stroke-width=".3985" stroke-linecap="butt" stroke-miterlimit="10" stroke-linejoin="miter" fill="none" stroke="#000000" d="M 35.01236 0 C 35.01236 .55023 34.56631 .99628 34.01608 .99628 C 33.46584 .99628 33.0198 .55023 33.0198 0 C 33.0198 -.55023 33.46584 -.99628 34.01608 -.99628 C 34.56631 -.99628 35.01236 -.55023 35.01236 0 Z M 34.01608 0 "/>
<path transform="matrix(1,0,0,-1,11.822,40.545999)" stroke-width=".3985" stroke-linecap="butt" stroke-miterlimit="10" stroke-linejoin="miter" fill="none" stroke="#000000" d="M 34.01608 0 L 34.01608 0 "/>
<text xml:space="preserve" transform="matrix(1 0 -0 1 0 53.806997)" font-size="9.9626" font-family="CMR10"><tspan y="-3.321" x="43.347">1</tspan></text>
<path transform="matrix(1,0,0,-1,11.822,40.545999)" stroke-width=".3985" stroke-linecap="butt" stroke-miterlimit="10" stroke-linejoin="miter" fill="none" stroke="#000000" d="M 5.66927 0 L 34.01608 0 "/>
<path transform="matrix(1,0,0,-1,11.822,40.545999)" stroke-width=".79701" stroke-linecap="butt" stroke-miterlimit="10" stroke-linejoin="miter" fill="none" stroke="#ff0000" d="M 11.33855 0 L 22.67752 0 "/>
<path transform="matrix(1,0,0,-1,11.822,40.545999)" d="M .99628 5.66927 C .99628 6.2195 .55023 6.66554 0 6.66554 C -.55023 6.66554 -.99628 6.2195 -.99628 5.66927 C -.99628 5.11903 -.55023 4.67299 0 4.67299 C .55023 4.67299 .99628 5.11903 .99628 5.66927 Z M 0 5.66927 "/>
<path transform="matrix(1,0,0,-1,11.822,40.545999)" stroke-width=".3985" stroke-linecap="butt" stroke-miterlimit="10" stroke-linejoin="miter" fill="none" stroke="#000000" d="M .99628 5.66927 C .99628 6.2195 .55023 6.66554 0 6.66554 C -.55023 6.66554 -.99628 6.2195 -.99628 5.66927 C -.99628 5.11903 -.55023 4.67299 0 4.67299 C .55023 4.67299 .99628 5.11903 .99628 5.66927 Z M 0 5.66927 "/>
<path transform="matrix(1,0,0,-1,11.822,40.545999)" stroke-width=".3985" stroke-linecap="butt" stroke-miterlimit="10" stroke-linejoin="miter" fill="none" stroke="#000000" d="M 0 5.66927 L 0 5.66927 "/>
<text xml:space="preserve" transform="matrix(1 0 -0 1 -.0000009536743 53.807)" font-size="9.9626" font-family="CMR10"><tspan y="-15.72" x="3.321">0</tspan></text>
<path transform="matrix(1,0,0,-1,11.822,40.545999)" d="M .99628 34.01608 C .99628 34.56631 .55023 35.01236 0 35.01236 C -.55023 35.01236 -.99628 34.56631 -.99628 34.01608 C -.99628 33.46584 -.55023 33.0198 0 33.0198 C .55023 33.0198 .99628 33.46584 .99628 34.01608 Z M 0 34.01608 "/>
<path transform="matrix(1,0,0,-1,11.822,40.545999)" stroke-width=".3985" stroke-linecap="butt" stroke-miterlimit="10" stroke-linejoin="miter" fill="none" stroke="#000000" d="M .99628 34.01608 C .99628 34.56631 .55023 35.01236 0 35.01236 C -.55023 35.01236 -.99628 34.56631 -.99628 34.01608 C -.99628 33.46584 -.55023 33.0198 0 33.0198 C .55023 33.0198 .99628 33.46584 .99628 34.01608 Z M 0 34.01608 "/>
<path transform="matrix(1,0,0,-1,11.822,40.545999)" stroke-width=".3985" stroke-linecap="butt" stroke-miterlimit="10" stroke-linejoin="miter" fill="none" stroke="#000000" d="M 0 34.01608 L 0 34.01608 "/>
<text xml:space="preserve" transform="matrix(1 0 -0 1 -.0000009536743 53.807)" font-size="9.9626" font-family="CMR10"><tspan y="-44.066" x="3.321">1</tspan></text>
<path transform="matrix(1,0,0,-1,11.822,40.545999)" stroke-width=".3985" stroke-linecap="butt" stroke-miterlimit="10" stroke-linejoin="miter" fill="none" stroke="#000000" d="M 0 5.66927 L 0 34.01608 "/>
<path transform="matrix(1,0,0,-1,11.822,40.545999)" stroke-width=".79701" stroke-linecap="butt" stroke-miterlimit="10" stroke-linejoin="miter" fill="none" stroke="#ff0000" d="M 0 11.33855 L 0 22.67752 "/>
<clipPath id="cp3">
<path transform="matrix(1,0,0,-1,11.822,40.545999)" d="M 11.33855 11.33855 L 11.33855 22.67752 L 22.67752 22.67752 L 22.67752 11.33855 Z M 22.67752 22.67752 "/>
</clipPath>
<g clip-path="url(#cp3)">
<symbol id="pac4">
<path transform="matrix(1,0,0,-1,0,53.807)" stroke-width=".3985" stroke-linecap="butt" stroke-miterlimit="10" stroke-linejoin="miter" fill="none" stroke="#ff0000" d="M 0 2.98883 L 3.08846 -.09962 "/>
</symbol>
<pattern id="pa4" patternUnits="userSpaceOnUse" patternContentUnits="userSpaceOnUse" x="0" y="0" width="2.98883" height="2.98883">
<clipPath id="cp5">
<path d="M -.99628 -.99628 L 3.9851 -.99628 L 3.9851 3.9851 L -.99628 3.9851 Z"/>
</clipPath>
<g clip-path="url(#cp5)">
<g transform="matrix(1,0,0,-1,-0,53.807)">
<use x="0" y="0" xlink:href="#pac4"/>
<use x="0" y="-2.98883" xlink:href="#pac4"/>
<use x="-2.98883" y="0" xlink:href="#pac4"/>
<use x="-2.98883" y="-2.98883" xlink:href="#pac4"/>
</g>
</g>
</pattern>
<rect transform="matrix(1,0,0,-1,0,53.807)" fill="url(#pa4)" x="19.175549" y="20.614552" width="19.308972" height="19.308972"/>
</g>
<path transform="matrix(1,0,0,-1,11.822,40.545999)" stroke-width=".3985" stroke-linecap="butt" stroke-miterlimit="10" stroke-linejoin="miter" fill="none" stroke="#000000" d="M 11.33855 11.33855 L 11.33855 22.67752 L 22.67752 22.67752 L 22.67752 11.33855 Z M 22.67752 22.67752 "/>
</g>
</svg>
